<?xml version="1.0" encoding="utf-8"?>
<!-- Generator: Adobe Illustrator 20.1.0, SVG Export Plug-In . SVG Version: 6.00 Build 0)  -->
<svg version="1.1" id="Layer_1" xmlns="http://www.w3.org/2000/svg" xmlns:xlink="http://www.w3.org/1999/xlink" x="0px" y="0px"
	 viewBox="0 0 409.5 130.5" style="enable-background:new 0 0 409.5 130.5;" xml:space="preserve">
<style type="text/css">
	.st0{fill:#FFFFFF;}
</style>
<g>
	<g>
		<path class="st0" d="M409.5,88.4c-4.7,6.5-11.5,9.4-19.1,10.4c-3.8,0.5-7.9,0.5-11.7-0.2c-9.3-1.7-14.3-8.2-14.4-18.5
			c-0.1-14.3-0.1-28.6-0.2-42.9c0-6.7-0.1-6.8-6.7-6.8c-0.7,0-1.4,0.1-1.9-0.1c-1-0.5-2.8-1.3-2.7-1.9c0-1.1,0.9-2.7,1.8-3.2
			c3.5-2,7.2-3.5,10.7-5.5c5.2-3,9.2-7.2,12.6-12.1c0.8-1.2,2.7-1.5,4.2-2.3c0.7,1.3,1.8,2.6,1.9,4c0.3,2.6,0.1,5.2,0.1,7.8
			c0,4.3,0.2,4.5,4.3,4.5c5.1,0,10.3,0.1,15.4,0c2.5,0,4,0.7,4,3.5c0,2.6-0.1,5.3-3.7,5.4c-5,0.1-10,0.1-15,0.1c-4.4,0-5,0.5-5,4.8
			c0,11.7-0.1,23.3,0.1,35c0,3.2,0.6,6.5,1.5,9.6c2.4,8.1,11.2,11.1,18.7,6.7c2.4-1.4,4.1-1.8,5.2,1.2
			C409.5,87.9,409.5,88.2,409.5,88.4z"/>
		<path class="st0" d="M124.7,30.2c7.4-5.1,15.3-9.3,24.4-10.3c7.6-0.9,15-0.1,21,5.5c3.7,3.5,5.5,7.9,5.5,12.8
			c-0.1,10.5-0.8,20.9-0.9,31.4c-0.1,4.5,0.5,9.1,0.9,13.6c0.1,0.8,0.5,1.7,1,2.4c1.8,2.9,5.3,4.2,8.8,3.4c3.4-0.8,3-3.8,3.2-6.1
			c0.3-5.2,0.2-10.5,0.2-15.7c0-8.7,0-17.5,0-26.2c0-3.7-1.3-6.4-4.7-8.3c-1.2-0.7-2.5-2.5-2.4-3.6c0.1-1.1,1.9-2.4,3.2-2.9
			c6.1-2.8,12.4-5.3,18.6-7.9c1.2-0.5,3.2-1.1,3.7-0.6c0.8,0.9,0.9,2.6,1,4c0.1,1.4-0.4,2.8-0.3,4.2c0.1,1.2,0.6,2.3,1.1,3.8
			c4.6-3,8.6-5.8,12.8-8.3c4.9-2.8,10.5-2.4,13.8,0.6c3.6,3.2,4.2,8.9,1.4,13.1c-2.9,4.3-8.6,5.8-13.3,3.4c-2.3-1.2-4.6-2.5-7-3.4
			c-3.9-1.4-6.1-0.2-7.1,3.8c-0.6,2.7-1,5.6-1.1,8.4c-0.1,10.6,0,21.2,0,31.8c0,0.1,0,0.2,0,0.3c0.8,10.9,2.1,11.5,10.4,11.8
			c0.8,0,1.5,0.3,2.3,0.3c2.3-0.1,3.1,1,3,3.2c-0.1,2.5-1.8,2.3-3.5,2.3c-4.4-0.1-8.7-0.2-13.1-0.2c-7.4,0-14.8,0-22.2,0.2
			c-2.4,0.1-4.9,1.1-7.3,1.5c-7.3,1.3-14.2,0.8-19.5-5.3c-2.2-2.6-4.1-1.1-6,0.1c-5.6,3.7-11.5,6-18.3,5.8
			c-4.9-0.1-9.1-1.7-13.1-4.8c-6.4,4-13.6,5-21.1,4.7c-10.3-0.5-17-6.3-17.4-16.6c-0.6-15.5-0.5-31-0.7-46.5c-0.1-5.6-0.5-6-6-5.3
			c-3.9,0.5-4.7-0.1-5.8-3.8C64.9,9.6,49.8,3.9,36,9.4c-11.1,4.5-14.8,18-8.2,28.2c4,6.1,9.7,10.1,16.1,13.5
			c8.1,4.2,16.3,8.2,23.3,14.4c16.9,14.9,17.6,41.4,0.6,55.4c-5.4,4.4-11.7,7.1-18.5,8.4c-13.1,2.4-25.9,1.3-38.4-3.6
			c-6.1-2.4-8.2-7.1-9.1-12.7c-0.9-5.7-1.3-11.4-1.6-17.2c-0.1-1.1,1.2-2.8,2.2-3.2c1.8-0.7,3.1,0.2,4,2.3c3.9,9.4,8.9,18,17.5,23.8
			c8.9,6.1,22.2,5.8,29.6-0.6c9.2-7.9,9-23.9-0.2-33.4c-5.4-5.6-12.1-9.1-18.8-12.8c-9.2-5.1-17.9-11-23.4-20.3
			C-0.4,32.4,8.8,9.3,30.3,2.5c11.6-3.7,23.2-2.8,34.8-0.4c0.2,0,0.4,0.2,0.6,0.2c9.2,2,9.2,2,10.4,11.4c0.4,3,0.7,6,1.1,9.2
			c7.9-3.6,14.1-8.5,18.7-15.3c1-1.5,1.9-3,4.1-2.2c2,0.7,2.3,2.3,2.2,4.2c-0.1,3.1,0,6.1-0.1,9.2c-0.1,2.1,0.7,2.9,2.8,2.9
			c5.2-0.1,10.5,0,15.7,0c4.7,0,6,1.7,4.6,6.3C125.1,28.6,125,29.5,124.7,30.2c-5.7,0.1-11.5,0.1-17.2,0.2c-5.4,0.1-5.7,0.5-5.7,5.9
			c0,9.9-0.2,19.9,0.1,29.8c0.1,4.7,0.7,9.6,2,14.1c1.6,6.1,6.9,8.9,13.2,7.8c-0.1-0.5-0.2-1-0.3-1.5c-2.4-8.8,0.1-15.4,8-20
			c2.1-1.2,4.5-2.2,6.8-3.1c7.3-2.8,14.7-5.4,21.9-8.3c1.3-0.5,2.9-2.3,3.1-3.6c0.4-4,0.4-8.1,0.1-12.1c-0.5-6.5-4.8-11-10.1-11.3
			c-7-0.3-9.6,2.2-11.5,10c-0.4,1.8-1.8,4.1-3.4,4.8c-3.7,1.6-7.7,2.8-11.7,3.4c-3.3,0.5-4.5-1.5-3.5-4.7
			C117.8,36.8,121.3,33.5,124.7,30.2z M156.1,72.5c0,0-0.1,0-0.1,0c0-2.3,0-4.6,0-6.9c0-2.4-1.2-3.2-3.4-2.5
			c-2.8,0.9-5.6,1.7-8.3,2.8c-6.6,2.7-9.2,7.6-7.9,14.5c0.8,4.7,5.3,8.4,10.2,8.4c5,0,8-2.5,8.9-8C156,78.2,155.9,75.3,156.1,72.5z"
			/>
		<path class="st0" d="M326.3,32.8c-0.7,5.7-0.6,11.4-2.1,16.7c-3.4,12-12.4,19-23.9,22.4c-5.8,1.7-12.1,2-18.2,2.8
			c-1.8,0.2-3.9,0.3-4.2-2.3c-0.3-2.6,1.8-2.5,3.4-3c9.6-2.7,16.4-8.7,18.9-18.4c3.3-12.7,2.7-25-7.7-34.7
			c-6.6-6.2-14.9-7.2-23.5-6.2c-2.5,0.3-3.6,1.9-3.6,4.5c0.1,32.1-0.1,64.2,0.2,96.2c0.1,9,2.8,10.5,9.8,10.9
			c1.2,0.1,2.3,0.5,3.5,0.6c4.7,0.4,4.7,0.3,4.1,5.4c-2,0-4,0-6,0c-14.9,0.1-29.9,0.2-44.8,0.4c-2.1,0-3.2-0.7-3.3-2.6
			c-0.1-1.8,0.6-3.2,2.8-3.1c0.2,0,0.4,0,0.7,0c8.8-1.2,10.4-2.5,10.7-11.3c0.6-19.3,0.4-38.6,0.5-57.9c0-11.1-0.1-22.2-0.3-33.4
			c0-2.1-0.5-4.3-1.3-6.3c-1.6-3.7-5.4-2.9-8.5-3.7c-0.9-0.2-1.9-0.3-2.9-0.3c-1.9,0-3-1.3-2.6-2.9c0.3-1.1,1.8-2.6,2.9-2.7
			c8.3-0.6,16.5-1.2,24.8-1.4c7.6-0.2,15.3-0.4,22.9,0.1c7.1,0.5,14.3,1.3,21.2,3.2c13.4,3.7,18.5,8.5,25,21.5
			c5.3-2,10.7-4,16.1-6.2c2.5-1,4.8-2.5,7.3-3.6c2.3-1.1,3.8-0.2,3.8,2.4c-0.1,20-0.3,39.9-0.4,59.9c0,1.7,0.1,3.5,0.4,5.2
			c0.5,3.6,2.6,5.6,6.2,6c0.7,0.1,1.5,0.5,2.2,0.5c2.4,0.1,2.7,1.8,2.2,3.4c-0.2,0.8-1.7,1.9-2.6,1.9c-12.3,0.1-24.6,0.1-36.9,0
			c-1,0-2.7-1.4-2.7-2.2c0-1,1.3-2.9,2.1-2.9c6.9-0.5,9.2-4.4,9.2-10.8c-0.1-13.5,0.1-27,0-40.6C331.1,36.9,329.9,33.9,326.3,32.8z"
			/>
	</g>
</g>
</svg>
