<?xml version="1.0" encoding="utf-8"?>
<!-- Generator: Adobe Illustrator 20.1.0, SVG Export Plug-In . SVG Version: 6.00 Build 0)  -->
<svg version="1.1" id="Layer_1" xmlns="http://www.w3.org/2000/svg" xmlns:xlink="http://www.w3.org/1999/xlink" x="0px" y="0px"
	 viewBox="0 0 360 45.8" style="enable-background:new 0 0 360 45.8;" xml:space="preserve">
<style type="text/css">
	.st0{fill:#FFFFFF;}
</style>
<g>
	<path class="st0" d="M11.8,16.9c1.8-0.8,2.6-2.1,2.6-4.1l0.1-1h-0.3v-1.2h-0.3l0.1,0.1v0.2L14.1,11h-0.1C13,9.8,11.6,9.1,9.6,9.1
		H1.9L1.6,8.8V1.5l0.3-0.3h8.6c6.7,0,11,2.4,12.7,7.1c0.4,1,0.6,2,0.6,3.3l-0.4,0.1v0.1c0.3,0,0.4,0.1,0.4,0.4
		c-0.2,1.8-0.4,2.7-0.8,2.7l-0.1-0.9h-0.7l-0.1,0.1h-0.1L21.6,14v-0.3l0.2-0.1v-0.1l-0.6-0.6L21,13h-0.3l-0.1-0.6h-0.3l0.1,0.1
		l-0.1,0.2V13l0.1,0.1v0.1l-0.1,0.1c0.5,0.3,0.9,0.8,1.2,1.6v0.3l-0.1,1l-0.7-0.1h-0.1l0.6,0.7h-1l0.1,1.5l-0.5,0.1V19l0.3,0.4
		l-1.3,0.8c-0.5,0-0.8-0.3-0.8-0.8h-1.2v0.5c0.5,0,1.3,0.4,2.4,1.2c0,0.2,0.2,0.3,0.7,0.3c0.7,0.3,1,0.8,1,1.3
		c1.2,0,2.3,1.4,3.4,4.2L24.1,27c0.4,0,0.6,0.7,0.7,2.2c-0.3,0-0.4,0.1-0.4,0.3c0.4,0.2,0.6,0.5,0.6,1h-0.1l0.1,0.1
		c-0.2,2.4-0.5,3.6-1,3.6l0.3,0.6L24,35.5l-1-0.1h-0.1l-0.4,0.3c-0.5-0.1-0.8-0.3-0.8-0.5V35l0.2-0.1v-0.1h-0.2L20.9,35v0.3
		c0,0.3,0.3,0.4,1,0.6v0.4l-0.5,0.4h-0.7l-0.3,0.3v0.3c0.3,0,0.9,0.4,1.8,1.2c-1.6,1.8-2.9,2.7-3.8,2.7c0,0.2-0.7,0.5-2.2,1
		c-0.2,0-0.5-0.3-0.9-0.9l-0.4,0.1v-0.1l-0.2-0.4l0.2-0.4h-0.8l-0.4-0.3v0.1c0.6,0.8,1,1.6,1,2.4l-2.5,0.1H12
		c-0.2,0-0.3-0.3-0.3-0.9c-0.3,0-0.4-0.2-0.4-0.7h-0.2v0.9c-0.6,0.1-0.9,0.2-0.9,0.3l0.1,0.4L10.2,43H1.9l-0.3-0.3v-7.2l0.3-0.3h5.9
		l0.6,0.5h0.1l-0.1-0.1v-0.1L9.3,35h0.5c0,0.3,0.1,0.5,0.3,0.5h0.3c0-0.4,0.3-0.6,1-0.6l2.2-0.9l0.1,1v0.5h0.3c0,0.3,0.3,0.5,1,0.9
		H16v-0.6c-0.3,0-0.4-0.1-0.4-0.3V35l0.1-0.7H16c0.2,0,0.3,0.2,0.3,0.6h0.2l0.1-0.7L15,33.2l-0.3-0.3v-0.4c0-0.4,0.2-0.9,0.6-1.5
		v-1.8l0.1-0.1l-0.9-2.2l0.6,0.3l0.1-0.1v-0.4h-1L13.6,26l0.1-0.1v-0.1h-0.1l-0.4,0.1c-0.4-0.5-1.5-0.9-3.5-1l0-7.2
		C9.7,17.2,10.4,16.9,11.8,16.9z M2.4,3.6v0.1l0.3,0.3l0.4-0.1V3.8L2.5,3.6H2.4z M5.6,36.6c0,0.2-0.3,0.6-0.9,1c0.2,0,0.6,0.3,1.2,1
		c0.1-0.4,0.2-0.6,0.5-0.6L6.2,38l0.1-0.7v-0.1c-0.3,0-0.5-0.2-0.5-0.5H5.6z M4.9,1.4v0.8L5.6,2L4.9,1.4z M5.8,39.6V40l0.3-0.3
		l-0.2-0.1H5.8z M7,42l-0.1,0.6H8v-0.3L7.7,42H7z M7.1,36v0.1c0.1,0.3,0.5,0.4,1.2,0.4h0.1C8.3,36.2,8,36,7.5,36H7.1z M7.9,40.6v0.6
		H8l0.1-0.1h0.1l0.1,0.1v-0.1C8.4,40.9,8.2,40.8,7.9,40.6z M8,41.5v0.1l0.1,0.4h0.3l0.1-0.6H8z M8.6,36.3l0.7,0.3l0.2-0.1h0.1
		l-0.3-0.7C8.9,35.9,8.6,36.1,8.6,36.3z M8.6,38.4v0.1l0.1,0.2v0.1L8.6,39h0.1l0.1-0.1L9.6,39h0.3v-0.6l-0.8-0.1L8.6,38.4z M9.6,2.9
		v0.6h0.3V3.2L9.6,2.9z M10.1,4.1L9.9,4.2v0.1l0.6,0.6c0.3-0.2,0.7-0.3,1.2-0.3c0-0.2-0.1-0.3-0.4-0.3l-0.8,0.1L10.1,4.1z M10.2,2.6
		v0.3l0.6-0.1V2.6H10.2z M10.5,17.5l-0.1,0.1V18c0.6,0.1,0.9,0.3,0.9,0.6h0.1v-0.3c-0.2,0-0.3-0.2-0.3-0.6L10.5,17.5z M10.5,8.2
		l0.3,0.3h0.3l-0.1-0.4L10.5,8.2z M10.6,37.1l-0.1,0.6c0.5,0,0.8,0.2,0.8,0.6h0.1v-0.4l-0.1-0.7H10.6z M10.9,19.8l-0.3,0.6h0.6
		l0.3-0.3v-0.1L10.9,19.8z M11.3,22.1v0.3c0.2,0,0.5,0.1,0.7,0.4h0.1c-0.1-0.3-0.3-0.5-0.7-0.7H11.3z M11.7,40.5v0.6h0.6v-0.6H11.7z
		 M13.2,3.5c0,0.2-0.2,0.3-0.5,0.3v0.3h0.5c0-0.2,0.1-0.3,0.4-0.3l-0.3-0.3H13.2z M13.2,16.5v0.3l0.3,0.3h0.1l-0.1-0.6H13.2z
		 M14.2,33.1h0.1c0,0.3,0.3,0.8,1,1.3c-0.1,0.4-0.4,0.6-1,0.6c-0.5-0.6-0.7-1-0.7-1.5L14.2,33.1z M13.8,6.6v0.3l0.7-0.1H15V6.4h-0.5
		L13.8,6.6z M14.2,7.9v0.1l0.4,1.3h0.2c0-0.4,0.3-0.7,0.9-0.8l-0.1-0.4h-0.7l-0.5-0.3H14.2z M14.3,21.4c0.2,0.4,0.4,0.7,0.6,0.7h0.1
		l-0.5-1L14.3,21.4z M14.3,24.8v0.3h0.5l0.3-0.3H14.3z M14.6,18.7v0.4H15l0.3-0.3L14.6,18.7z M14.8,13.5v0.3l0.6-0.3v-0.1h-0.1
		L14.8,13.5z M15,9.7c0.1,0.4,0.3,0.6,0.4,0.6l0.1-0.1V9.7h-0.3l-0.1-0.1L15,9.7z M15.1,25.1v0.3h0.4v-0.3H15.1z M15.2,4.9l0.3,0.6
		h0.1V4.9H15.2z M15.5,10.4l-0.1,1.2l0.1,0.1h0.6l0.3-1.2h-0.2L15.5,10.4z M15.5,17.1v0.3l0.3,0.3H17v-0.3h0.7l0.5,0.3h0.3
		c0-0.3-0.7-0.6-2.1-0.9h-0.3L15.5,17.1z M15.8,20.9H16l0.3-0.3h-0.1L15.8,20.9z M16.4,7.5v0.7h0.4V8.1C16.7,7.7,16.6,7.5,16.4,7.5z
		 M16.6,13.5l0.1,0.6h0.1c0.1,0,0.3-0.2,0.4-0.6H16.6z M18,24.5c0.5,0,0.8,0.3,0.8,0.9h0.4c0-0.5,0.1-0.8,0.3-0.8l0.1,0.2l1.2-0.3
		H21c0.2,0,0.3,0.2,0.3,0.5c0.2,0.2,0.5,0.3,0.9,0.3v0.3c-0.7,0.7-1,1.3-1,1.8l0.4,0.4v0.1c-0.2,0-0.5,0.2-0.7,0.5h-0.6v1.2l-1,0.3
		l-0.3-0.3l-0.3,0.9l0.1,0.6l-0.4,0.4l0.4,0.8v0.3c0,0.2-0.4,0.3-1.2,0.4l-0.1-0.1l-0.1,0.1v0.1c0.3,0,0.4,0.2,0.4,0.6L17.5,34
		c0.6,0,0.9,0.2,0.9,0.7c0,0.2,0.4,0.5,1.3,0.8c0-0.5,0.1-0.8,0.3-0.8l-0.2-0.1v-0.1l0.2-0.1v-0.1l0.7,0.1h0.1l-1.2-0.7l-0.1,0.1
		h-0.1l-0.1-0.1v-0.2l0.3-0.7l2.1-0.1v-0.1l-0.3-0.4l-0.7,0.1l-0.8-0.3v-0.6L20,31l-0.2-0.1v-0.6l0.5-0.5h1l-0.1,0.8l0.1,0.1h0.3
		l0.2-0.7l-0.2-1l0.2,0.1h0.1l0.3-0.3v-0.1l-0.1-0.1v-0.1c0.6-0.3,0.9-0.5,0.9-0.6L22.5,27c0.2-0.6,0.4-0.9,0.6-0.9l0.1,0.1v-0.1
		l-0.6-0.9l0.3-0.4v-0.3l-0.1,0.1h-0.1l-0.1-0.1l-0.1,0.1h-0.1c-0.2,0-0.3-0.1-0.3-0.4h-2.2c-0.2,0-0.3-0.4-0.4-1.3l0.9-0.3l0.1,0.1
		h0.4v-0.1c-0.4,0-0.8-0.1-1.2-0.4c-0.8,0.5-1.2,1-1.2,1.3L18,24.5z M17.9,10.1l0.3,0.4l-0.5,1.3h0.1l1.8-0.4
		C19.2,10.6,18.6,10.1,17.9,10.1z M18.2,27.5L17.9,28l0.1,0.1l-0.1,0.2h0.9l-0.3-0.5l0.6-0.1v-0.3H18.2z M18.4,8.5v0.1
		c0.3,0,0.6,0.3,0.9,1l0.1,0.1h0.1l0.1-0.1V9.5c-0.2-0.6-0.6-1-1.2-1H18.4z M18.4,14.1l0.1,0.1v0.2l-0.1,0.1v0.1h0.3l0.3-0.9
		L18.4,14.1z M18.5,37.1v0.1l0.3,0.3h0.1v-0.3l-0.1-0.1H18.5z M20.1,35.8l-0.3,0.6v0.1c0.5-0.1,0.8-0.3,0.8-0.4l-0.3-0.3H20.1z
		 M20.1,11.5l0.1,0.7h0.1v-0.7H20.1z M20.3,10.1v0.1l0.3,0.3v-0.1L20.3,10.1z M21.2,25.4v0.4l0.4-0.1v-0.1L21.2,25.4z M21.9,16.4
		l0.6,0.4l-1,1.2h-0.1v-0.5C21.7,17.1,21.9,16.7,21.9,16.4z M21.9,14.9v0.4h-0.3v-0.1L21.9,14.9z M21.8,11.9v0.4h0.3v-0.7L21.8,11.9
		z M21.9,8.8v0.3h0.7V8.8H21.9z M21.9,32.2v0.1l0.4,1l-0.1,0.8h0.3c0-0.2,0.2-0.3,0.6-0.3v-0.3c-0.3,0-0.4-0.3-0.4-0.8l0.3-0.4v-0.1
		H21.9z M22.2,15.2h0.1l0.7,0.1c0,0.5-0.2,0.9-0.6,1h-0.3v-0.1l0.1-0.1l-0.1-0.2V15.2z M22.5,36.2h0.1l0.8,0.3v0.3l-0.6,0.6h-0.3
		l-0.3-0.3v-0.6L22.5,36.2z M23.4,28.6l0.3,0.3l0.3-0.3H23.4z M23.8,31.4v0.1l0.3,0.3v-0.5H23.8z M23.8,33.1l0.1,0.1h0.4v-0.4h-0.3
		L23.8,33.1z"/>
	<path class="st0" d="M40.4,9.1c-2.3,0.3-3.7,2-4.3,4.8v15.2c0,2.9,1.4,4.9,4.3,5.9v7.9c-4.7-0.3-7.9-1.4-9.5-3.1l0.1-0.5l-0.1-0.4
		h-0.3v0.3h-0.1l-1-0.9l0.1-0.5v-0.1h-0.3c-1.8-2.2-2.7-4.9-2.7-8.3V14.4c0-3,0.9-5.8,2.7-8.5l-0.1-0.1V5.6l0.1,0.1
		c2.4-2.9,6.1-4.4,11.2-4.6V9.1z M30.1,4.1h-0.4V3.8h-0.1c0,0.3-0.1,0.4-0.3,0.4h-0.3V3.8c0.3,0,0.4-0.1,0.4-0.3h0.3L30.1,4.1z
		 M30.4,29.4l-0.5,0.3V30h0.1v-0.3H31v-0.3H30.4z M31,16.7l0.7,0.9v0.2l-0.3,0.2H32l0.3-1.4H31z M31.9,11.7v0.1L32,12l0.3-0.3H31.9z
		 M53.5,20.1l0.1-0.1v0.1l-0.1,0.1c1.8,2.7,2.7,5.6,2.7,8.5v0.6c0,3.4-0.9,6.2-2.7,8.3h-0.3v0.1l0.1,0.5l-1,0.9h-0.1v-0.3h-0.3
		l-0.1,0.4l0.1,0.5c-1.7,1.8-5,2.8-9.9,3.1l0-7.3h0.4v-0.1L42.2,35c3-1,4.5-3,4.5-5.9v-0.8c-0.6-3-2.2-4.6-4.7-4.9l0-7.9
		C47.3,15.7,51.1,17.2,53.5,20.1z M47.4,24.9l0.1,0.9h0.3l-0.1-0.1v-0.1l0.3-0.6H47.4z M50.4,26.1l0.3,0.3l0.1-0.1v-0.1H50.4z
		 M51.7,29.4v0.3h0.9V30h0.1v-0.3l-0.5-0.3H51.7z M53.1,17.9h0.3c0,0.2,0.1,0.3,0.4,0.3v0.4h-0.3c-0.2,0-0.3-0.1-0.3-0.4h-0.1v0.3
		h-0.4L53.1,17.9z"/>
	<path class="st0" d="M72,9.1c-2.3,0.3-3.7,2-4.3,4.8v15.2c0,2.9,1.4,4.9,4.3,5.9v7.9c-4.7-0.3-7.9-1.4-9.5-3.1l0.1-0.5l-0.1-0.4
		h-0.3v0.3h-0.1l-1-0.9l0.1-0.5v-0.1h-0.3c-1.8-2.2-2.7-4.9-2.7-8.3V14.4c0-3,0.9-5.8,2.7-8.5l-0.1-0.1V5.6l0.1,0.1
		C63.2,2.8,67,1.3,72,1.1V9.1z M61.7,4.1h-0.4V3.8h-0.1c0,0.3-0.1,0.4-0.3,0.4h-0.3V3.8c0.3,0,0.4-0.1,0.4-0.3h0.3L61.7,4.1z
		 M62.1,29.4l-0.5,0.3V30h0.1v-0.3h0.9v-0.3H62.1z M62.7,16.7l0.7,0.9v0.2L63,18.1h0.7l0.3-1.4H62.7z M63.5,11.7v0.1l0.1,0.1
		l0.3-0.3H63.5z M74.1,1.2c5.1,0.2,8.8,1.7,11.2,4.6l0.1-0.1v0.1l-0.1,0.1c1.8,2.7,2.7,5.6,2.7,8.5v15.1c0,3.4-0.9,6.2-2.7,8.3h-0.3
		v0.1l0.1,0.5l-1,0.9h-0.1V39h-0.3l-0.1,0.4l0.1,0.5c-1.6,1.7-4.8,2.8-9.5,3.1V35c2.9-1,4.3-3,4.3-5.9V13.9c-0.6-2.9-2-4.5-4.3-4.8
		V1.2z M79.2,10.5l0.1,0.9h0.3l-0.1-0.1v-0.1l0.3-0.6H79.2z M82.1,11.7l0.3,0.3l0.1-0.1v-0.1H82.1z M83.5,29.4v0.3h0.9V30h0.1v-0.3
		L84,29.4H83.5z M84.8,3.5h0.3c0,0.2,0.1,0.3,0.4,0.3v0.4h-0.3c-0.2,0-0.3-0.1-0.3-0.4h-0.1v0.3h-0.4L84.8,3.5z"/>
	<path class="st0" d="M115.1,1l0.1,0.1h1.6l0.3,0.3v16.8l-0.1,0.6l0.1,0.4H117l0.1,0.1v4.9l-0.1,0.2l0.1,0.1v18.1l-0.3,0.3h-0.9
		v-0.4h-0.3c0,0.3-0.1,0.4-0.3,0.4h-4.7v-0.4h-0.3v0.4h-2.4l-0.3-0.3V1.4l0.3-0.3h7L115.1,1z M109,39v0.3h0.4V39H109z M109.1,41.2
		v0.4l0.3-0.3v-0.1H109.1z M109.7,41h0.6l-0.3-0.3L109.7,41z M111.6,40v0.1c0.7-0.1,1-0.2,1-0.4v-0.1h-0.6L111.6,40z M112.1,41.3
		l0.1,0.4h0.1v-0.4H112.1z M113.4,23.8c0,0.4-0.3,0.6-0.9,0.8v0.1h0.8l0.3-0.8v-0.1H113.4z M112.8,36.9V37l0.5,0.5h0.1v-0.6H112.8z
		 M113.9,41.3l-0.3,0.3v0.5l0.4-0.6v-0.1H113.9z M113.7,37.5v0.3h0.4l-0.3-0.3H113.7z M114.2,25.3v0.3h0.6l0.2-0.6h-0.2L114.2,25.3z
		 M114.3,41l-0.1,0.1v0.1h0.4L114.3,41z M115.4,32.7c0,0.3-0.3,0.4-0.9,0.4v0.3l1.2-0.4v-0.3H115.4z M115.2,18.8l0.3,0.3h0.1v-0.3
		H115.2z M115.8,31.8l-0.1,0.6h0.3l0.1-0.6H115.8z M116.4,17.9c0,0.4-0.2,0.6-0.6,0.6v0.1h0.1c0.4-0.2,0.7-0.4,0.8-0.6v-0.1H116.4z
		 M115.9,23.8v0.3h0.6v-0.3H115.9z M116.2,13.7V14h0.5v-0.3H116.2z M118.9,1.1h8c5.9,0.3,8.9,1.2,8.9,2.5h0.7c2.8,2,4.2,5,4.2,9
		c0,4.4-1.7,7.6-5.1,9.3l-0.3-0.3c0,0.5-0.6,0.8-1.8,1v0.1c1.7,0,3.3,1.5,4.7,4.6l-0.1,0.2h-0.6l-0.1-0.2h-0.2l-0.1,0.6h0.1l0.9-0.1
		c0.4,0,0.7,1.1,0.9,3.3h-0.3l-0.7-0.1l-0.6,0.7c0.3,0,0.5,0.2,0.7,0.6v0.3l-0.1,0.1V33h1v-0.3h0.3l0.9,4.6
		c-0.6,0.2-0.9,0.4-0.9,0.6v0.1h0.7c0.3,0,0.6,0.7,0.9,2.1l-0.5,0.5V41l0.5-0.3h0.1c0.2,0.1,0.6,0.6,1.2,1.6l-0.6,0.6h-2.4l0.3-1.2
		v-0.4c-0.3,0-0.5,0.5-0.6,1.6h-2.5l-0.3-0.3l0.1-0.1h0.3l0.8,0.1v-0.4l-0.2-0.6l0.5-0.6l0.7,0.1l0.6-0.1v-0.8
		c-1.5,0.3-2.2,0.6-2.2,0.9l0.1,0.9l-0.1,0.1h-1.3c0,0.5-0.1,0.7-0.3,0.7h-2.4c-0.3,0-0.9-1.2-1.8-3.6l0.1-0.4
		c-0.3,0-0.8-2.6-1.6-7.9c-0.3-1.2-1.1-2.2-2.4-3c-1.2-0.4-2.7-0.6-4.7-0.6v-0.4h0.3v-0.3h-0.3c0,0.2-0.2,0.3-0.6,0.3v0.4l-2.5,0.2
		h-0.4l-0.3-0.3v-2.8c0-0.2,0.2-0.3,0.7-0.3V24h-0.1l-0.4,0.1l-0.1-0.1v-3.7l0.3-0.3h3.7c5.8,0,8.8-1.7,8.8-5.2v-1.2
		c-0.3-2.9-1.7-4.3-4.2-4.3c0-0.2-1.2-0.3-3.7-0.3h-4.6l-0.3-0.3V1.4L118.9,1.1z M120.7,24.1v0.1l0.9,0.5h1.3v-0.3h-1.3
		c-0.2,0-0.3-0.2-0.3-0.5L120.7,24.1z M121,20.6v0.3l0.3,0.3l-0.1,0.1v0.4h0.6l-0.1-0.1v-0.1l0.4-0.6l-0.9-0.3H121z M122.5,20.3
		l-0.1,0.6h0.4v-0.6H122.5z M123.1,24.7l0.3,0.3h0.9v-0.1l-0.3-0.3L123.1,24.7z M124.7,23.4l0.1,0.4h0.3l0.3-0.3v-0.1l-0.7-0.1V23.4
		z M128.1,20l0.3,0.4l-0.1,0.1h-0.1l-0.1-0.1c-0.5,0-1.2,0.3-2,0.8h-0.4l0.1,0.1v0.1l-0.3,0.9h0.4c0.6-0.2,0.9-0.6,0.9-1.2l0.4-0.3
		h0.6c0.3,0,0.4,0.2,0.4,0.6h0.3l0.4-0.8c-0.2,0-0.3-0.2-0.3-0.6l-0.1-0.1H128.1z M129.1,26.2l0.5,2.2h0.3V28l-0.3-1.2l0.3-0.4v-0.1
		H129.1z M130.5,22.6l-0.3,0.6l1.5,0.6v-0.3c-0.2,0-0.3-0.2-0.3-0.6l-0.6-0.3H130.5z M130.5,18.5l0.6,0.6h0.6l0.3-0.3h-1.2v-0.3
		H130.5z M130.9,35.1c0.1,0.6,0.3,0.9,0.5,0.9l0.3-0.3v-0.2l-0.4-0.4H130.9z M131.2,29.5l-0.1,0.6v0.1h0.1l0.1-0.6v-0.1H131.2z
		 M131.8,25l-0.1,0.1v0.3l0.6-0.3V25H131.8z M131.7,32.1l0.6,0.9h0.3v-0.3c-0.3,0-0.4-0.2-0.4-0.6H131.7z M131.8,38.1
		c0.6,0.2,1,0.5,1.2,0.9l1.3,0.4V39c-0.7,0-1.2-0.3-1.6-1l-0.2-0.1h-0.4L131.8,38.1z M132.1,36l0.3,0.3h0.3V36H132.1z M132.1,39.8
		l0.3,0.3h0.1l-0.3-0.3H132.1z M132.3,20.3v1.2h0.3v-1.2H132.3z M132.5,34.4v0.1h0.3v-0.4L132.5,34.4z M133.3,16.7l-0.1,0.4l0.1,0.4
		h0.1l0.1-0.9H133.3z M133.7,29.6v0.1h0.1l0.5-0.4V29L133.7,29.6z M133.7,41.9v0.3h0.1l0.8-0.1v-0.5h-0.3L133.7,41.9z M134.2,30.9
		h0.2l0.3-0.3h-0.1L134.2,30.9z M134.9,33.7l-0.4-0.3l-0.3,0.3v0.1h1l0.1,0.2c0.6-0.2,0.9-0.4,0.9-0.6l-0.1-0.1H136
		C135.6,33.6,135.3,33.7,134.9,33.7z M134.2,35.4l0.2,0.6h0.1l0.6-0.3v-0.3H134.2z M134.6,32.9V33l0.3,0.3h0.3l0.3-0.3L134.6,32.9z
		 M135.7,39.2c0,0.4-0.1,0.6-0.3,0.6l0.1,0.1v0.1l-0.3,0.5v0.1h0.6v-1.5H135.7z M135.5,10.2h0.1l0.3-0.3h-0.1L135.5,10.2z
		 M135.8,30.9v0.3l0.7-0.1v-0.1H135.8z M136.1,36.9c0,0.2,0.3,0.5,1,0.9h0.3v-0.1c0-0.2-0.3-0.4-1-0.8H136.1z M136.3,32.4h0.3
		l0.6-0.3v-0.3H137C136.6,32,136.3,32.2,136.3,32.4z M137,28.7l-0.3,0.5l0.6,0.4l0.2-0.1h0.1l0.9,0.6v-1.2H138l-0.8,0.1L137,28.7z
		 M136.7,35.4v0.3h0.6v-0.3H136.7z M136.9,27.1v0.1l0.4,0.1v-0.3H136.9z M137.3,29.9v0.9c0.2,0,0.3-0.2,0.3-0.5l-0.1-0.4H137.3z
		 M137.9,38.3l0.3,0.3l0.3-0.3H137.9z M139.5,39.2v0.3h0.6v-0.3H139.5z M142.4,43.8h0.7l0.3,0.3l-0.3,0.3h-0.7l-0.3-0.3L142.4,43.8z
		"/>
	<path class="st0" d="M146.7,1.3h5l0.3,0.3v4h-0.3c0-0.6-0.1-0.9-0.3-0.9l-0.3,0.3v0.3c0,0.2,0.3,0.4,0.9,0.6v4.6l-1-0.1h-0.1v0.1
		l1.2,0.5v1.8h-0.4V13c0.3,0,0.4,0.1,0.4,0.3v7.1c-0.4,0-0.6,0.3-0.6,1l0.1,0.1l-0.4,0.3h-0.4c-0.2,0-0.3-0.3-0.3-0.8h-0.2
		c0,0.5-0.1,0.8-0.4,0.8h-0.7l-0.3-0.3v-0.6c0.3,0,0.4-0.1,0.4-0.3l-0.1-0.7l-0.1,0.1h-0.1l0.1,0.1v0.4l-0.3,0.3h-0.4
		c-0.5-0.2-0.7-0.6-0.7-1.3v-0.2l0.4-0.1l-0.3-0.9c0.4,0,0.6-0.3,0.6-0.8h1.2v-0.6h0.9l0.2-0.1h0.1c0-0.3-0.2-0.4-0.6-0.4l-0.1-0.9
		l-0.1,0.1h-0.1l0.1,0.1v0.3l-0.4,0.4l-0.6,0.1v0.4l-0.1-0.1h-0.3l-0.3,0.9l-0.6-0.3V18h-1.5v-0.6l0.1-0.7c-0.3,0-0.4-0.1-0.4-0.3
		v-0.6l0.4-0.1c0.2,0.7,0.6,1,1.2,1v-0.1c-0.5-0.3-0.8-0.6-0.8-1l0.3-0.3l0.1,0.1h0.8v-0.9c0-0.2,0.1-0.3,0.4-0.3v-0.3
		c-0.6,0-0.9-0.3-0.9-0.9l-0.1,0.1h-0.2l-1.3-0.3l-0.1,0.1v-0.3c0.3,0,0.4-0.1,0.4-0.3v-0.4h-0.3v0.3l-0.8-0.1h-0.3v0.1h0.3v0.3
		l-0.6,0.2v-0.8h0.4v-0.6l-0.1-0.1V11c0.4-0.2,0.6-0.5,0.6-0.9h0.5l0.4,0.4l-0.3,0.3l0.3,0.9h0.3v-0.6h0.1l0.3,0.3l-0.1,0.1v0.1h0.3
		l0.9-0.3v-0.3c-0.6,0-1.2-0.3-1.9-1V8.9h-0.3c0,0.2-0.2,0.5-0.6,0.9l-0.1-0.1h-0.7l0.3,1c0,0.3-0.4,0.7-1.2,1.2v0.1h-0.6v-1.2
		l0.3-1h-0.3V9.3h0.3v0.4c0.7,0,1.1-0.2,1.2-0.6V8.9h-0.1v0.3c-0.8-0.1-1.2-0.4-1.2-1l0.6-0.4h0.9l-0.1,0.7v0.3h0.1
		c0-0.4,0.1-0.6,0.3-0.6l-0.3-1.3l0.3-0.3V6.4c-0.3,0-0.4-0.1-0.4-0.3l-0.1,0.1h-0.1l-0.5-0.4V5.7c0.5,0,0.8-0.2,0.8-0.6l-0.1-0.1
		l0.1-0.1l0.1,0.1h0.4l0.8-0.1l0.1,0.9h0.1c0.3-0.3,0.6-0.5,0.9-0.5V4.9L146,4.8l0.4-1.3c-0.3,0-0.4-0.3-0.6-0.9l0.3-0.4l0.7,0.3
		l0.2-0.1l-0.3-0.9V1.3z M144.8,1.3v0.4h0.1c0-0.2,0.2-0.4,0.6-0.4l0.3,0.4V2c-0.3,0-0.4,0.2-0.4,0.5l-0.6,0.3l-0.6-0.1
		c-0.2,0.4-0.4,0.7-0.6,0.7l-0.1-0.1h-0.2l-0.4,0.6l0.9,0.2v1c-0.4,0-0.6,0.1-0.6,0.4h-0.6V3.8l0.1-1.3l-0.1-1l0.1-0.1H144.8z
		 M142.6,12.5h0.3l0.1,0.8l-0.1,1l-0.3-0.3V12.5z M144.1,13c0.2,0,0.5,0.5,0.9,1.5h0.1l0.2-0.8c-0.3,0-0.5-0.1-0.5-0.3l0.8-0.1
		l0.7,0.4h0.1v0.4l-0.3,0.3h-0.7c0,0.4-0.2,0.8-0.5,1h0.1l-0.1,0.1v0.1l0.3,0.9l-0.5,0.3l-0.4-0.4h-0.1l-0.3,0.3
		c0,0.8,0.3,1.2,1,1.3v0.1l0.1-0.1h0.2l0.3,0.3v1c-0.5,0-0.8,0.1-0.8,0.3v0.1c0.2,0.4,0.5,0.6,1,0.6c0-0.6,0.1-0.9,0.3-0.9v0.1
		l0.4-0.1v-0.2c0-0.2-0.1-0.3-0.4-0.3L146,19v-0.4l0.3-0.4c0.8,0,1.2,0.3,1.2,1c-0.2,0-0.3,0.3-0.3,0.8h-0.3v0.4
		c1.3,0.9,2,1.5,2,1.6c0,0.2,0.2,0.3,0.7,0.3l0.1,0.1v0.8l-0.1,0.7h0.1l0.8-0.3l0.1,0.1v-0.3c0-0.2-0.2-0.3-0.6-0.3
		c0-0.2,0.3-0.3,0.8-0.3v-0.1l0.9,0.3v-0.2l0.1-0.6h0.3v3.4l-0.1,1L152,28v9.8c0,0.3-0.2,0.7-0.6,1.2v0.3l0.1-0.1h0.4v0.1l-0.1,0.1
		l0.1,0.7v1.9l-0.9,0.9h-0.7l-0.5-0.3l0.1-0.1v-0.5l-0.9,0.3v0.3h-0.9v-0.6l0.6-0.3h0.1v-0.1l-0.3-0.3h-0.2c0,0.3-0.3,0.6-0.9,0.9
		l-0.9-0.2c0.1-0.7,0.3-1,0.5-1h0.7c0-0.3,0.3-0.4,0.8-0.4l0.6-0.9v-0.1h-0.6v-0.9h0.6l0.9,0.7h0.3v-0.1c-0.5,0-0.8-0.3-0.8-0.9
		v-0.1c0.4,0,0.7-0.2,0.9-0.7h0.1v0.3h0.3v-0.4l-0.3-1.2h-0.3l-0.5,0.9l0.3,0.3l-1.6,1.2l-0.5-0.1v0.1c0,0.4-0.4,0.7-1.2,0.9
		c-0.2-0.4-0.5-0.7-0.9-0.7v-0.5l0.3-0.3h0.1l0.8,0.1l-0.1-0.1v-0.1l0.3-0.9h-0.8l0.2,0.1v0.3h-0.5l-0.3-0.6v-0.1h-0.1
		c0,0.7-0.1,1-0.3,1h-0.3l-0.5-0.1v0.1l-0.3,0.9l-0.1-0.1h-0.1l-0.3,0.3c0.7,0,1,0.2,1,0.6l0.1,0.7l-1.2,0.1l0.1,0.1v1
		c0.6,0,0.9,0.1,0.9,0.3v0.9h-0.9c-0.2,0-0.3-0.3-0.4-0.9c-0.7,0-1-0.1-1-0.3v-1h0.3v-0.1c-0.4,0-0.6-0.1-0.6-0.3v-2.6l1-0.9h-1
		v-0.1l0.3-0.4v-0.4l-0.3-0.5v-8.7c0-0.2,0.1-0.3,0.4-0.3v-0.1c-0.3,0-0.4-0.1-0.4-0.3v-3.3l0.3-0.3h0.1l0.1,0.1h0.1v-0.1l-0.7-0.8
		v-5.8h0.3l0.3,0.3H143l0.1,0.5h0.3v-0.8c0-0.2,0.3-0.3,0.9-0.3v-0.1l-1-0.3v-0.3l0.2-0.1V14l-0.2-0.1
		C143.7,13.7,143.9,13.4,144.1,13z M142.9,42.4l0.1,0.1v0.1l-0.3,0.3l-0.1-0.1v-0.1L142.9,42.4z M143.3,31.9v0.3h0.3l-0.1,0.1v0.1
		l0.1,0.4h-0.1l-0.5,0.1v0.1h0.5c0.3-0.7,1-1,1.9-1v-0.3l-1.3,0.3l-0.3-0.3H143.3z M143.3,17.4l-0.1,0.5l0.1,0.1h0.2l0.3-0.5
		l-0.1-0.1H143.3z M144.7,23h0.4v0.1l-0.7,0.1v0.3h0.3v0.6l0.1,0.8l-0.9,0.3v-0.1l-0.8,0.1v0.1l0.1,0.1v0.1l1.5-0.3v0.3h0.3v-1h0.8
		l-0.1-0.6l0.1-0.4h1l0.5,0.4l-0.1,0.1v0.3l0.3,0.3v-0.5h0.3l0.6,0.6v0.1l-0.1,0.1l0.1,0.1v0.1l-0.1,0.7h0.3l0.1-1.2l0.2,0.1h0.3
		v-0.1c-0.2,0-0.3-0.3-0.3-0.8c-0.5-0.1-0.8-0.2-0.8-0.4l0.6-1.2h-0.4V23h-0.4l-0.1-0.2h-0.1l0.1-0.7V22h-0.3l-0.1,0.9l-0.1-0.1
		h-0.2l-0.1,0.5h-1v0.6h-0.6v-0.3h0.3v-0.1l-0.1-0.5h0.1c0.2,0,0.4-0.3,0.6-1h-0.6L144.7,23z M143.6,39c0,0.3-0.2,0.4-0.5,0.4
		l0.3,0.3l-0.2,0.1v0.3h0.8V40c-0.2-0.2-0.3-0.6-0.3-1H143.6z M143.5,26.6v0.3l0.4,0.1l0.1-0.1v-0.8h-0.1L143.5,26.6z M143.8,19.4
		l-0.1,0.2v0.4l0.4-0.4l-0.1-0.2H143.8z M143.8,30.1l-0.1,0.1v0.1h0.1v-0.1l0.1,0.1h0.3v-0.1L143.8,30.1z M143.9,36.2v0.1l0.3,0.3
		h0.1v-0.3l-0.1-0.1H143.9z M144.1,28.4v0.3l0.4,0.4l0.8-0.3v-0.1l-0.3-0.3l-0.7,0.1L144.1,28.4z M144.1,34.4V35l0.7-0.9l-0.1-0.1
		L144.1,34.4z M144.4,30.4v0.1l0.4,0.4v-0.1L144.4,30.4z M144.4,35.8l0.3,0.3l0.4-0.1v-0.1H144.4z M144.4,37.1v0.1l0.3,0.3l0.3-0.3
		L144.4,37.1z M145.1,6.4v0.3h0.2l0.7-0.1V6.1L145.1,6.4z M146,24.9c0,0.5-0.1,0.7-0.3,0.7l-0.4-0.1c0.2,0.2,0.3,0.6,0.3,1h0.3
		c0.2,0,0.3-0.3,0.4-0.8l-0.1-0.1l0.6-0.3v0.3h0.1v-0.6L146,24.9z M145.7,31.2v0.1h0.6V31h-0.1L145.7,31.2z M146.3,39.7v0.8
		l-0.3,0.3l-0.3-0.9l0.1-0.1H146.3z M146.1,6.6V7h0.3V6.6H146.1z M147.3,7.8v0.4h0.3V7.8H147.3z M147.5,6.1v0.1h0.3l0.1-0.4h-0.1
		L147.5,6.1z M147.6,7.2v0.1h0.3l0.3-0.3l-0.1-0.1h-0.1L147.6,7.2z M147.8,3.8h0.1l0.4-0.4h-0.1L147.8,3.8z M147.8,28.6v0.3h0.6
		l0.5-0.4v-0.1h-0.2L147.8,28.6z M149,4.1v0.7h-0.1l-0.3-0.3l0.1-0.1h-0.4v0.9h-0.3v0.3h0.3c0-0.3,0.4-0.5,1.3-0.6
		c0.2-0.4,0.5-0.6,0.7-0.6V4.1H149z M150,14.4c0,0.5-0.1,0.8-0.4,0.9l-0.6-0.1l-1,0.1v0.4l2.1-0.4l0.3-0.3v-0.3L150,14.4z
		 M149.8,9.4H149l-0.3-0.3l-0.4,0.1v0.6L149,10l0.1-0.1l1.5,0.4v-0.1c0-0.2-0.2-0.3-0.5-0.3V9.7l0.6-0.6h0.9l0.1-0.5l-0.1-0.1h-0.3
		L149.8,9.4z M148.8,2.3l-0.3,0.6h0.3l0.3-0.3L148.8,2.3z M148.6,11.5l-0.1,0.1v0.1l0.5,0.4l0.1-0.1h0.3c0.5,0,0.7,0.2,0.7,0.6h0.5
		v-0.2C150.2,12.1,149.5,11.7,148.6,11.5z M148.6,30.4v0.3l0.9,0.1V31c0,0.3-0.1,0.7-0.4,1v0.1h0.3c0.2,0,0.3-0.2,0.3-0.6l0.9-0.1
		v-0.7L148.6,30.4z M148.8,27.5v0.4h0.1l0.4-0.1v-0.3H148.8z M149.1,12.7V13c0.2,0,0.3,0.2,0.3,0.6h0.3l-0.4-0.7v-0.1H149.1z
		 M149.7,6.4l0.1,0.7h-0.3v0.5h0.1L151,7h0.1V6.9l-0.7-0.1H150V6.4H149.7z M149.5,18.3v0.1l0.1,0.4h0.6v-0.3l-0.6-0.3H149.5z
		 M149.7,13.7v0.4h0.3l-0.1-0.4H149.7z M149.8,26v0.1l0.3,0.3V26H149.8z M150.1,29.4L150,30h0.3v-0.6H150.1z M150.7,34.7
		c0,0.5-0.3,0.8-0.8,0.8v0.1l1.2,0.1v-0.9L150.7,34.7z M150.3,27.9V28l0.2,1h0.4c0-0.5,0.2-0.7,0.7-0.7c-0.1-0.4-0.3-0.7-0.9-0.9
		L150.3,27.9z M150.6,25.1v0.6c0.1,0,0.3-0.2,0.4-0.6H150.6z M150.7,2.6c0.2,0.8,0.4,1.2,0.6,1.2l0.4-0.4c-0.2,0-0.3-0.2-0.3-0.7
		l-0.1-0.1h-0.1L150.7,2.6z M150.7,12.7h0.6l-0.3-0.3L150.7,12.7z M150.7,41.2v0.1h0.1c0.6-0.1,0.9-0.2,0.9-0.4v-0.1h-0.6
		L150.7,41.2z M150.9,18l0.3,0.3h0.3v-0.1l-0.1-0.5h-0.1L150.9,18z M151.2,31.9l-0.1,0.1v0.4c0.3,0,0.4,0.2,0.4,0.6h0.4
		c-0.4-0.4-0.6-0.8-0.6-1h0.3v-0.1H151.2z M154,1.3h3.6l0.3,0.3l-0.3,0.3v0.5h0.1c0.3,0,0.4-0.3,0.4-1h2.5l0.1,0.1l0.2-0.1h1.9
		c0.1,0.5,0.2,0.7,0.4,0.7l0.1-0.1h0.1l-0.1-0.1V1.3h3.7v0.4l0.1-0.1l0.1,0.1h0.3V1.5l-0.1-0.1V1.3h5.3l0.3,0.3v7.1l-0.3,0.3h-3.8
		V8.5c-0.2,0-0.3,0.1-0.3,0.4h-8.4l-0.4-0.3l-0.4,0.3H154l-0.3-0.3V7.5l0.1-0.2l-0.1-0.1V2.6h0.3V2.2h-0.3V1.5L154,1.3z M153.8,17.1
		c0.6,0,1.1,0.4,1.3,1.3l-0.1,0.1h0.3l0.1-0.1l0.1,0.1h0.2l0.4-0.4l-0.8-0.8v-0.3h0.1l0.2,0.1h0.1l0.1-0.1l0.7,0.1h1.2l0.7-0.1v0.1
		l0.1-0.1h0.5l0.4,0.1l0.7-0.1h2.5l1.2,0.3l0.3-0.3h0.1l0.1,0.1l0.1-0.1h5.9l0.3,0.3v0.1H171l-0.7-0.1l-0.1,0.1v0.1l1.2,0.3l0.1-0.5
		h0.3v2.7c-0.7-0.1-1.3-0.3-1.6-0.8h-0.9v-0.3h-0.9c0-0.4-0.2-0.6-0.6-0.6v0.1c0.2,0.9,0.5,1.3,0.8,1.3c0.3,0,0.4,0.1,0.4,0.4
		l0.1,0.1h0.1c0-0.4,0.2-0.6,0.5-0.6l0.4-0.3l0.9,0.6h0.3l0.1-0.1h0.1l0.1,1v2l-0.1,0.1l0.1,0.1v0.1l-0.1,1l-1-0.1l-0.3,0.3H170
		v-0.2l-1,0.2h-1.8l-0.1-0.2l-0.1,0.2h-1l-0.1-0.2l-0.1,0.2h-0.9l-0.6-0.2l-0.6,0.2h-1l-0.3-0.3l-1.2,0.3h-3.9
		c-0.2,0-0.4-0.3-0.6-0.9h-0.1l-0.3,0.4l-0.5-0.1v0.1c0,0.3-0.2,0.5-0.7,0.5H154v-0.3h0.7v-0.1l-0.1-0.1l0.1-0.4h0.1l0.1,0.1h0.1
		l0.1-0.1V23c0-0.2-0.1-0.3-0.4-0.3l-0.1,0.1h-0.1l-0.4-0.1l0.1,0.1l-0.1,0.2v0.1l0.1,0.4l-0.3,0.7h-0.3v-1.8l0.1-0.1l-0.1-0.1v-3.1
		h0.1c0.2,0,0.4,0.4,0.5,1.2h0.1c0-0.6,0.1-1,0.3-1.2V19l-0.9-0.9v-0.5l0.2-0.1l-0.2-0.1V17.1z M155.9,35.1h0.9l0.6,0.5
		c0-0.3,0.1-0.5,0.3-0.5h1.3v0.2l-0.1,0.1v0.1l0.1,0.1h0.2l0.6-0.6h5l0.4,0.3l0.6-0.3c0.3,0.1,0.5,0.3,0.6,0.6l-0.1,0.1l1.2,0.6
		v-0.3c-0.4,0-0.6-0.3-0.7-1h2.5c0.4,0,1.1,0.3,2.1,0.9l0.3-0.3l-0.1-0.1v-0.5h1.9l0.3,0.3v1.2l-0.9,1.3h0.1l0.6-0.4h0.1v1.9
		l-0.1,0.1l0.1,0.1v0.1l-0.3,0.4l0.3,0.5v1.9l-0.3,0.3h-5.9v-0.1l0.6-0.1v-0.1h-0.3v0.1l-0.1-0.1h-0.4V43h-2.4l-0.8-0.6l0.5-0.9
		c-0.9-0.1-1.4-0.2-1.6-0.4l-1,0.4V42c0.3,0,0.4,0.2,0.4,0.5h-0.1l0.1,0.1v0.1L162,43h-2.1v-0.1c0-0.2,0.1-0.3,0.4-0.3l-0.4-0.6
		h-0.7v-0.3h-0.9c0,0.5-0.3,0.8-0.9,0.8l-0.3-0.3v-1h0.5l-0.1-0.1V40l0.1-0.1v-0.1c-0.3-0.3-0.6-0.4-0.9-0.4v-0.1l0.1-0.1l-0.1-0.1
		v-0.1l0.3-0.5c-0.1-0.3-0.3-0.5-0.7-0.7l-0.6,0.3l0.2,0.7c0,0.3-0.2,0.7-0.5,1v0.3c0,0.2,0.3,0.4,0.8,0.4v0.3h-0.5
		c0,0.3,0.2,0.4,0.6,0.4v1.5h0.6v0.1l-0.3,0.3h-1.9c0-0.3-0.2-0.4-0.6-0.4l-0.2-0.1v-0.9l0.3-0.4v-0.6h-0.5v-1.2l0.9-0.8
		c0-0.3,0.2-0.4,0.6-0.4v-0.3h-0.6l0.3-1.5c0.2,0,0.3,0.1,0.3,0.4c0.4,0,0.6-0.2,0.6-0.6l0.1-0.1l-0.1-0.1h-0.2v-0.4L155.9,35.1z
		 M153.7,36.8h0.3l0.3,0.3v0.6h-0.6V36.8z M154.9,5.4l-0.1,0.1v0.2l0.1,0.1h0.1l0.1-0.1l0.4,0.6v0.9h0.2l0.4-0.1V6.9
		C155.9,6.2,155.5,5.7,154.9,5.4z M155,3.2l0.4,0.3l0.1-0.4l-0.1-0.1h-0.1L155,3.2z M155.3,7.3v0.3h0.3l0.3-0.3H155.3z M155.3,22.4
		v0.1h0.1l0.8-0.1v-0.3h-0.1L155.3,22.4z M155.5,20.3v0.3h0.3c0,0.2,0.1,0.3,0.4,0.3v1h0.3l0.1-0.8
		C156.1,20.6,155.7,20.3,155.5,20.3z M156.2,18.9c0,0.5,0.2,0.9,0.7,1.2l0.8-1v-0.1h-0.1c0,0.2-0.2,0.3-0.6,0.3v0.3h-0.1v-0.3
		l-0.3-0.3H156.2z M156.4,7.9v0.6h0.1l0.1-0.4l-0.1-0.1H156.4z M156.8,4.4v0.6l0.3-0.3V4.4H156.8z M158,21.5l0.3,0.4l-0.7,0.3
		c0,0.2,0.2,0.3,0.6,0.4c0-0.2,0.2-0.3,0.7-0.4l0.1,0.1l-0.1-0.6l-0.1,0.1h-0.3v-0.4H158z M158.4,42.3h0.4l0.6,0.6V43h-1.3l-0.3-0.3
		L158.4,42.3z M158.6,17.7v0.2l0.4-0.2v-0.3h-0.1L158.6,17.7z M158.6,19.8v0.1l0.1,0.4h0.1l0.3-0.3L158.6,19.8z M158.6,38.4v0.1
		l0.9,0.8l0.3-0.3h0.6l1.3,1.2l0.1-0.1v-0.1c-0.4,0-0.6-0.2-0.6-0.7l0.1-0.8L161,39h-0.3l-1-0.5l-0.6,0.2L158.6,38.4z M159,18.6V19
		h0.3v-0.1L159,18.6z M159.2,17.5v0.3h0.1l0.4-0.2v-0.3h-0.1L159.2,17.5z M159.8,7v0.3h0.3l0.3-0.3H159.8z M160.1,3.8l-0.1,0.6h0.3
		l0.3-0.3L160.1,3.8z M160.8,36v0.3h0.3v-0.6L160.8,36z M162.1,23.8v0.4h0.1l0.5-0.1v-0.1L162.1,23.8z M162.6,41.5
		c0.5,0,0.9,0.3,1.2,0.9h0.1v0.3l-0.7,0.3h-0.3c0-0.4-0.2-0.8-0.6-1.2L162.6,41.5z M162.7,38.1V39l0.1,0.1v0.1h-0.5
		c0,0.2,0.3,0.3,0.9,0.6v-0.1l-0.1-0.1v-0.1l0.1-0.1l-0.4-0.1c0-0.5,0.2-0.8,0.4-0.8l-0.3-0.3H162.7z M162.6,35.8v0.1L163,36v-0.1
		l-0.1-0.1H162.6z M163.3,7.3L163,8.2h0.1l0.4-0.4V7.3H163.3z M163.3,19.4v0.3h0.7v-0.3l-0.1,0.2h-0.1L163.3,19.4z M163.3,36.6
		l0.3,0.3l0.3-0.3H163.3z M164.2,21.8v0.6l0.5,0.1l0.3-0.9L164.2,21.8z M164.8,39v2.2c0.3,0.5,0.7,0.8,1.2,0.9V42l-0.6-1l0.3-0.6
		l-0.6-0.6V39H164.8z M165.1,18c0.3,0,0.6,0.2,1,0.6c0-0.3,0.1-0.4,0.4-0.4c0,0.2,0.3,0.4,1,0.7v-0.3c-0.5,0-0.9-0.3-1.3-0.9h-0.9
		L165.1,18z M165.2,37.2l-0.1,0.1v0.4h0.1c0-0.3,0.1-0.4,0.3-0.4v-0.1H165.2z M165.4,8.2v0.3l0.3,0.3V8.2H165.4z M165.5,5.1h0.4V4.7
		L165.5,5.1z M165.7,36.2v0.8l0.3-0.3l-0.1-0.4H165.7z M165.7,38.4v0.1l0.1,0.5h0.1v-0.1l-0.1-0.5H165.7z M166,22.3v0.3l0.5,1h0.1
		v-0.9c-0.2,0-0.3-0.1-0.3-0.4H166z M166.3,23.8c0,0.3-0.1,0.4-0.3,0.4v0.3l0.6-0.3v-0.4H166.3z M166,38.3v0.3l0.6-0.1v-0.6
		l-0.4,0.4H166z M167.3,3.3c0,0.4-0.3,0.6-0.9,0.6l-0.1-0.2l-0.1,0.6h0.9l0.4-0.9V3.3H167.3z M166.3,20.1l0.1,0.6h0.3l0.3-0.3
		l-0.3-0.3H166.3z M166.4,20.9v0.6h0.1v-0.6H166.4z M166.6,39.6V40l-0.1,0.8h0.1l0.3-0.3v-0.9H166.6z M167.3,39.2v0.3l0.1,0.1h0.3
		v-0.1l-0.3-0.3H167.3z M168.6,39.3l0.1,0.1l0.1,0.1c0.2,0,0.3,0.2,0.3,0.6l0.5,0.1l0.1-0.1v-0.3l-0.9-0.6H168.6z M169.2,21.2
		l0.1,0.8l0.5-0.4l-0.3-0.3H169.2z M170.1,37.5v0.3l0.1,0.7h0.1l0.1-0.9l-0.1-0.1H170.1z M172.2,38.1l-0.3,0.3
		c0.1,0.8,0.2,1.3,0.4,1.5l-0.6,0.9h0.3c0-0.2,0.1-0.3,0.4-0.3V40l-0.1-0.7l0.6-0.1l0.2,0.1l0.1-0.1l-0.1-0.6l-0.8,0.2l-0.1-0.2
		l0.1-0.1v-0.3H172.2z"/>
	<path class="st0" d="M194.4,1.3l0.1,0.1v6.5l-0.9,0.6v0.1l0.4,0.1c0-0.3,0.1-0.4,0.3-0.4h0.1v0.3l-3.7,1.3l-2.4,1.8l-1.1-0.3
		c0.2,0.4,0.4,0.7,0.6,0.7c0-0.3,0.1-0.4,0.3-0.4V12c-1.6,1.9-2.6,4.4-3.1,7.4l-0.1-0.1h-0.4c0,0.2,0.1,0.3,0.4,0.3l0.1,0.1v0.3
		c0,1.1-0.1,1.7-0.4,1.7h-0.1l0.1,0.1v0.3l-0.3,0.3l-0.4-0.1l-0.1,0.1v0.1l0.1,0.1h0.1l0.4-0.1c0.3,0.3,0.7,1.8,1,4.4l-0.4,0.4h-0.1
		v0.1h0.3v-0.1c0.5,0,0.7,0.4,0.7,1.3l-0.1,0.1c0.2,0.1,1,1.2,2.3,3.6c0,0.2,1,1,3,2.2l2.4,0.6v0.4l-0.1,0.1v0.1l-0.1-0.1h-0.3v0.4
		h-0.3v-0.1l0.1-0.1v-0.1l-0.8-0.1c-0.3,0.9-0.8,1.3-1.5,1.3v0.3c0.3,0,0.4,0.2,0.4,0.6v0.1l0.6-0.1l-0.1-0.1v-0.1
		c0.5,0,0.7-0.1,0.7-0.3v-0.3l-0.1-0.4h0.1l0.6-0.1h0.3l1,0.3v-0.1c0.4,0.1,0.6,0.3,0.6,0.4l-0.1,0.1v0.1h0.1l-0.1,0.1v0.4l0.1,0.1
		v0.1l-0.1,0.1H194l-0.3-0.3c0,0.2-0.1,0.3-0.4,0.3l-0.1,0.7h0.1l0.6-0.1c0,0.2,0.2,0.3,0.6,0.3v0.3l-0.3,0.7H194l-0.6-0.3l-0.6,0.4
		v0.3h0.3v0.6l-0.3,0.3l-0.6,0.1v-0.4h0.3v-0.3l-0.4-0.1c0.6-0.7,0.8-1.2,0.8-1.6c-0.2,0-0.5,0.4-1,1.1l0.1,0.1H192l-0.4-0.3h-0.1
		l-0.3,0.3c0,0.3,0.2,0.4,0.6,0.4l-0.1,0.4l0.1,0.7l-0.1-0.1h-0.1v0.1c0.3,0,0.5,0.3,0.6,1h-0.3v0.1l-2.5-0.6l0.1-0.7l-0.8-0.3
		l-0.3,0.3c0-0.4-0.1-0.6-0.4-0.6h-0.1c0,0.4-0.2,0.6-0.6,0.6c-1.7-0.5-3.7-2-6.1-4.4l0.1-0.6l-0.1-0.1h-0.1l-0.3,0.3l-2.1-3
		l0.1-0.4h-0.1c-0.3,0-1-1.3-1.8-3.8c0-0.9,0.3-1.3,1-1.3l-0.1-0.7c0.2,0,0.3,0.1,0.3,0.4l0.1-0.1h0.1l0.1,0.1v-0.4h0.4l0.3,0.3
		l-0.4,0.4l0.1,0.1v0.3l-0.1-0.1h-0.1l-0.1,1l0.7,0.1v-0.1c0.6,0,1.1,0.3,1.4,0.8l-0.1,0.1l0.1,0.1h0.3l-0.3-0.8h0.1l0.4,0.1v-0.1
		l0.4,0.3l0.1-0.1h0.3v0.3L182,30v-0.1l-0.1-0.1v-0.1l0.1-0.1l-0.1-0.1h-0.1c0,0.4-0.1,0.6-0.4,0.6h-0.1c-0.4-0.5-0.8-0.7-1-0.7
		l-0.3,0.3h-0.6c-0.2,0-0.4-0.3-0.6-0.7c0-0.5,0.2-0.8,0.7-1.1l0.1,0.1v-0.1l0.6,0.3l0.1-0.1v-0.1l-0.1-0.1l0.3-0.6l-0.1-0.1
		l0.1-0.1h-0.3l-0.1,0.1h-0.1l-0.4-0.1v0.1l-0.3,0.3v-0.1l-0.8,0.3H177v0.3h-0.7c-0.4,0-0.6-0.7-0.6-2.1l0.7,0.4h0.4v-0.3l-0.1-0.7
		l0.4-0.4H177l-0.6,0.4l-0.3-0.6l0.1-0.1l-0.6-0.3c0.1,0.6,0.2,0.8,0.3,0.8l-0.1,0.4c-0.3,0-0.4-1-0.4-3.1c0-2.3,0.1-3.4,0.4-3.4
		l-0.1-0.1v-0.1c0.3-2.9,1.5-6.1,3.7-9.6C183.5,3.7,188.5,1.3,194.4,1.3z M176.2,28h0.1l0.6,0.1v0.1l-0.4,0.4h-0.1L176.2,28z
		 M177.3,29.7l-0.1,0.1V30l1.4,0.8v-0.3c0-0.3-0.1-0.6-0.4-0.8l-0.1,0.1h-0.1L177.3,29.7z M177.4,20.3v0.3l0.4,0.1v-0.1L177.4,20.3z
		 M177.7,24v0.3h0.6L178,24H177.7z M177.9,22.2v0.4l0.4-0.1v-0.3l-0.1,0.1H178L177.9,22.2z M180.5,20.6v0.1l0.1,0.4
		c-0.3,0.2-0.7,0.4-1.3,0.4c0-0.2-0.2-0.4-0.6-0.4l-0.1,0.1v0.1c0.8,0,1.1,0.5,1.1,1.4h-0.1c-0.2,0-0.3,0.1-0.3,0.4
		c-0.7,0.3-1.1,0.6-1.1,0.7h0.1c0.9-0.2,1.3-0.5,1.3-0.9l0.8-0.1v0.1l0.1-0.1h0.3l-0.1,0.1v0.1l0.1,0.1l0.1-0.1h0.1l0.3,0.3
		l-0.1,0.1h0.7v-0.1l-0.1-0.4h0.3v0.3h0.4l-0.1-0.1v-0.3h0.1l0.6,0.4l0.4-0.1l-0.1-0.1v-0.1l0.1-0.7h-0.8v-0.3h-0.1v0.3
		c-0.7-0.1-1-0.4-1-0.7v-0.1l-0.1,0.1h-0.1c-0.3-0.2-0.6-0.5-0.7-1H180.5z M178.4,14.7V15h0.4v-0.3H178.4z M178.4,19.2v0.3l0.3,0.3
		l0.1-0.1v-0.4H178.4z M179,25v0.1l0.4-0.4h-0.1L179,25z M179.6,24l-0.1,0.6c0.2,0,0.3-0.1,0.3-0.4V24H179.6z M179.6,34.8v0.4h0.1
		l0.4-0.1l-0.3-0.3H179.6z M179.7,19.8v0.3h0.4v-0.1L179.7,19.8z M180.5,28.3l-0.1,0.4l0.1,0.4h0.1l0.1-0.4l0.4,0.1v-0.4L180.5,28.3
		z M180.4,35.1v0.4l0.1,0.1h0.1v-0.1l-0.1-0.4H180.4z M181.1,26.7l-0.4-0.1h-0.1v0.1l1,0.6h0.1l-0.1-0.7l0.3-0.3h-0.1L181.1,26.7z
		 M181.3,32.3l0.6,0.1l0.3-0.4h-0.6L181.3,32.3z M183.1,27.4c0,0.3-0.1,0.4-0.3,0.4l-0.6-0.1v0.1l-0.1-0.1H182l-0.6,0.8l0.1,0.6h0.1
		c0-0.4,0.2-0.7,0.7-0.9h0.4v0.1h-0.3l0.4,0.7h0.7l0.1-0.1h0.1l0.6,0.6h0.1c-0.6-0.9-1-1.4-1.3-1.4v-0.7H183.1z M181.4,36.2l0.3,0.3
		l0.1-0.1v0.1l0.4-0.1l-0.1-0.4h-0.4L181.4,36.2z M181.8,33.9l0.1,0.6h0.3l0.3-0.3v-0.3l-0.1,0.1l-0.1-0.1H181.8z M182.1,17.8v0.3
		h0.4v-0.3H182.1z M182.4,8.5v0.4c0.4-0.2,0.7-0.4,0.7-0.7H183L182.4,8.5z M182.8,37.2h0.1l0.3-0.3v-0.1L182.8,37.2z M183,26.2
		l0.1,0.4l0.6-0.6h-0.3L183,26.2z M183.4,36.5l0.3,0.3h0.3l0.1-0.6H184L183.4,36.5z M183.7,38.7v0.1c0.2,0.5,0.5,0.7,1,0.7h0.7v-0.1
		l-0.7-0.1l-0.4,0.1l0.1-0.1V39L183.7,38.7z M183.8,25.9L184,26v0.1l0.7-0.1v-0.3h-0.1L183.8,25.9z M184.2,36.8v0.4h0.3v-0.4H184.2z
		 M184.9,17.5c0,0.2-0.1,0.3-0.4,0.3v0.3h0.1l0.6-0.6H184.9z M184.7,37.4l0.1,0.1l-0.1,0.1v0.1l0.3,0.3l0.4-0.1v0.3h0.1
		c0-0.2,0.2-0.3,0.6-0.3l0.3-0.3v-0.3l-0.4,0.3l-0.8-0.3H184.7z M184.8,34.8v0.6h0.1l0.1-0.6H184.8z M185.6,40l-0.1,0.4h0.1l0.6-0.3
		V40h-0.3l-0.1-0.1L185.6,40z M185.6,30.4v0.1h0.4v-0.3L185.6,30.4z M186.4,38.9l-0.3,0.4h0.3l0.1-0.4H186.4z M186.2,33l0.1,0.1v0.1
		l-0.1,0.4l0.1,0.1h0.3C186.6,33.3,186.5,33,186.2,33z M187.4,33.7l-0.7,0.7l1.3-0.4v-0.1L187.4,33.7z M186.9,31.4v0.3l0.3,0.3
		l0.3-0.3l-0.4-0.3H186.9z M186.9,35.2v0.6c0,0.5,0.2,0.8,0.7,1h0.3v-0.6L186.9,35.2z M188.6,39.7v0.1l0.1,0.1h0.4v-0.1L188.6,39.7z
		 M189.5,40.5l-0.1,0.1v0.1h0.3l-0.1,0.1V41h0.6v-0.4L189.5,40.5z M190.2,39.7l0.3,0.7h0.6v-0.3c-0.2,0-0.3-0.1-0.3-0.4H190.2z
		 M191.2,34.8l0.1,0.1v0.1H191v0.3l0.4-0.3l0.1,0.1v-0.1l-0.3-0.3H191.2z M193.6,41.7c0.6,0,0.8,0.2,0.8,0.7l0.1,0.4h-0.1l-1.1,0.1
		v-0.1l-0.4-0.6l-0.1,0.1h-0.1v-0.3L193.6,41.7z M194.4,40.3h0.1v1.1l-0.1,0.1v0.1l-0.4-0.1C194.1,40.7,194.3,40.3,194.4,40.3z
		 M206.3,17.2l-1.5-1.4l0.1-0.1v-0.1l-1.7-2.8c-1.4-1.7-3.2-2.9-5.4-3.6c-1.1-0.1-1.7-0.3-1.7-0.6V1.5l0.3-0.3
		c4.3,0,8.5,1.6,12.6,4.9c2.5,2.7,4,4.9,4.4,6.7l-0.3,0.4v0.3l0.3,0.3V13c0.1,0,0.3,0.2,0.4,0.7L206.3,17.2z M210.3,36.6
		c-4.2,4.3-8.8,6.4-14,6.4v-0.3c0.3,0,0.4-0.1,0.4-0.3h-0.6v-2h0.3v-0.9h0.4l0.4,0.3h0.1l0.6-0.3l-0.8-1.1v-0.6c0-1,0.4-1.6,1.1-1.7
		l-0.1-0.1l0.1-0.1v-0.6l-0.7,0.1v-0.4l1.3-0.3v0.1l-0.1,0.1v0.1h0.3c0-0.4,0.8-1,2.3-1.7c1.1-0.9,1.7-1.5,1.7-1.8h1v-0.1l-0.1-0.1
		v-0.1l-0.1,0.1h-0.3v-0.1c0-0.2,0.4-0.5,1.3-1v-0.4l-0.1-0.7l0.1-0.1h0.3l0.1,0.1l0.1-0.1h0.1c0.3,0,0.4,0.1,0.4,0.4h0.1v-0.6h-0.7
		c-0.2,0-0.3-0.1-0.3-0.4l0.1-0.9l8.2,4.4C212.4,33.4,211.5,35,210.3,36.6z M196.4,36.4h0.3l-0.1,0.7h-0.1l-0.3-0.3v-0.1L196.4,36.4
		z M196.1,38.1h0.3v1.1l-0.3,0.3V38.1z M198.2,40.9l-0.1,0.1v0.3l0.4,0.1v-0.3L198.2,40.9z M198.2,37.6v0.1l0.4,0.1v-0.3H198.2z
		 M201.5,39.3v0.1h0.3l0.1-0.4h-0.1L201.5,39.3z M204.3,32.7l0.1,0.4h0.1l0.3-0.3v-0.3l-0.3-0.3C204.4,32.3,204.3,32.4,204.3,32.7z
		 M205.2,31.5l0.1,0.4h0.1l0.3-0.3v-0.3l-0.3-0.3C205.3,31.1,205.2,31.3,205.2,31.5z M206,32.1v0.1l0.1,0.1h0.4v-0.1L206,32.1z
		 M206.2,29.7l0.3,0.3h0.1l-0.3-0.3H206.2z M206.3,5.9v0.1c0.2,0,0.3,0.1,0.3,0.4h0.3V5.9H206.3z M207.9,31.4l0.1,0.1l-0.1,0.1h0.4
		l-0.1-0.6L207.9,31.4z M212,13.9c0,0.3-0.2,0.4-0.7,0.4v0.1h0.6l0.8-0.3v-0.3h-0.3l-0.1,0.1h-0.1L212,13.9z"/>
	<path class="st0" d="M234.3,1.3l0.1,0.1v6.5l-0.8,0.6v0.1l0.4,0.1c0-0.3,0.1-0.4,0.3-0.4h0.1v0.3l-3.7,1.3l-2.4,1.8l-1.1-0.3
		c0.2,0.4,0.4,0.7,0.6,0.7c0-0.3,0.1-0.4,0.3-0.4V12c-1.6,1.9-2.6,4.4-3.1,7.4l-0.1-0.1h-0.4c0,0.2,0.1,0.3,0.4,0.3l0.1,0.1v0.3
		c0,1.1-0.1,1.7-0.4,1.7h-0.1l0.1,0.1v0.3l-0.3,0.3l-0.4-0.1l-0.1,0.1v0.1l0.1,0.1h0.1l0.4-0.1c0.3,0.3,0.7,1.8,1,4.4l-0.4,0.4h-0.1
		v0.1h0.3v-0.1c0.5,0,0.7,0.4,0.7,1.3l-0.1,0.1c0.2,0.1,1,1.2,2.3,3.6c0,0.2,1,1,3,2.2l2.4,0.6v0.4l-0.1,0.1v0.1l-0.1-0.1h-0.3v0.4
		h-0.3v-0.1l0.1-0.1v-0.1l-0.8-0.1c-0.3,0.9-0.8,1.3-1.6,1.3v0.3c0.3,0,0.4,0.2,0.4,0.6v0.1l0.6-0.1l-0.1-0.1v-0.1
		c0.5,0,0.7-0.1,0.7-0.3v-0.3l-0.1-0.4h0.1l0.6-0.1h0.3l1,0.3v-0.1c0.4,0.1,0.6,0.3,0.6,0.4l-0.1,0.1v0.1h0.1l-0.1,0.1v0.4l0.1,0.1
		v0.1l-0.1,0.1h-0.1l-0.3-0.3c0,0.2-0.1,0.3-0.4,0.3l-0.1,0.7h0.1l0.6-0.1c0,0.2,0.2,0.3,0.6,0.3v0.3l-0.3,0.7h-0.1l-0.6-0.3
		l-0.6,0.4v0.3h0.3v0.6l-0.3,0.3l-0.6,0.1v-0.4h0.3v-0.3l-0.4-0.1c0.6-0.7,0.8-1.2,0.8-1.6c-0.2,0-0.5,0.4-1,1.1l0.1,0.1H232
		l-0.4-0.3h-0.1l-0.3,0.3c0,0.3,0.2,0.4,0.6,0.4l-0.1,0.4l0.1,0.7l-0.1-0.1h-0.1v0.1c0.3,0,0.5,0.3,0.6,1h-0.3v0.1l-2.5-0.6l0.1-0.7
		l-0.8-0.3l-0.3,0.3c0-0.4-0.1-0.6-0.4-0.6h-0.1c0,0.4-0.2,0.6-0.6,0.6c-1.7-0.5-3.7-2-6.1-4.4l0.1-0.6l-0.1-0.1h-0.1l-0.3,0.3
		l-2.1-3l0.1-0.4h-0.1c-0.3,0-1-1.3-1.8-3.8c0-0.9,0.3-1.3,1-1.3l-0.1-0.7c0.2,0,0.3,0.1,0.3,0.4l0.1-0.1h0.1l0.1,0.1v-0.4h0.4
		l0.3,0.3l-0.4,0.4l0.1,0.1v0.3l-0.1-0.1h-0.1l-0.1,1l0.7,0.1v-0.1c0.6,0,1,0.3,1.4,0.8l-0.1,0.1l0.1,0.1h0.3l-0.3-0.8h0.1l0.4,0.1
		v-0.1l0.4,0.3l0.1-0.1h0.3v0.3l0.3-0.3v-0.1l-0.1-0.1v-0.1l0.1-0.1l-0.1-0.1h-0.1c0,0.4-0.1,0.6-0.4,0.6H221
		c-0.4-0.5-0.8-0.7-1-0.7l-0.3,0.3h-0.6c-0.2,0-0.4-0.3-0.6-0.7c0-0.5,0.2-0.8,0.7-1.1l0.1,0.1v-0.1l0.6,0.3l0.1-0.1v-0.1l-0.1-0.1
		l0.3-0.6l-0.1-0.1l0.1-0.1h-0.3l-0.1,0.1h-0.1l-0.4-0.1v0.1l-0.3,0.3v-0.1l-0.8,0.3h-1.3v0.3h-0.7c-0.4,0-0.6-0.7-0.6-2.1l0.7,0.4
		h0.4v-0.3l-0.1-0.7l0.4-0.4h-0.1l-0.6,0.4l-0.3-0.6l0.1-0.1l-0.6-0.3c0.1,0.6,0.1,0.8,0.3,0.8l-0.1,0.4c-0.3,0-0.4-1-0.4-3.1
		c0-2.3,0.1-3.4,0.4-3.4l-0.1-0.1v-0.1c0.3-2.9,1.5-6.1,3.7-9.6C223.5,3.7,228.5,1.3,234.3,1.3z M216.1,28h0.1l0.6,0.1v0.1l-0.4,0.4
		h-0.1L216.1,28z M217.2,29.7l-0.1,0.1V30l1.4,0.8v-0.3c0-0.3-0.1-0.6-0.4-0.8l-0.1,0.1h-0.1L217.2,29.7z M217.4,20.3v0.3l0.4,0.1
		v-0.1L217.4,20.3z M217.7,24v0.3h0.6l-0.3-0.3H217.7z M217.8,22.2v0.4l0.4-0.1v-0.3l-0.1,0.1h-0.1L217.8,22.2z M220.5,20.6v0.1
		l0.1,0.4c-0.3,0.2-0.7,0.4-1.3,0.4c0-0.2-0.2-0.4-0.6-0.4l-0.1,0.1v0.1c0.8,0,1.1,0.5,1.1,1.4h-0.1c-0.2,0-0.3,0.1-0.3,0.4
		c-0.8,0.3-1.1,0.6-1.1,0.7h0.1c0.9-0.2,1.3-0.5,1.3-0.9l0.8-0.1v0.1l0.1-0.1h0.3l-0.1,0.1v0.1l0.1,0.1l0.1-0.1h0.1l0.3,0.3
		l-0.1,0.1h0.7v-0.1l-0.1-0.4h0.3v0.3h0.4l-0.1-0.1v-0.3h0.1l0.6,0.4l0.4-0.1l-0.1-0.1v-0.1l0.1-0.7h-0.8v-0.3h-0.1v0.3
		c-0.7-0.1-1-0.4-1-0.7v-0.1l-0.1,0.1h-0.1c-0.3-0.2-0.6-0.5-0.7-1H220.5z M218.4,14.7V15h0.4v-0.3H218.4z M218.4,19.2v0.3l0.3,0.3
		l0.1-0.1v-0.4H218.4z M218.9,25v0.1l0.4-0.4h-0.1L218.9,25z M219.5,24l-0.1,0.6c0.2,0,0.3-0.1,0.3-0.4V24H219.5z M219.5,34.8v0.4
		h0.1l0.4-0.1l-0.3-0.3H219.5z M219.6,19.8v0.3h0.4v-0.1L219.6,19.8z M220.5,28.3l-0.1,0.4l0.1,0.4h0.1l0.1-0.4l0.4,0.1v-0.4
		L220.5,28.3z M220.3,35.1v0.4l0.1,0.1h0.1v-0.1l-0.1-0.4H220.3z M221,26.7l-0.4-0.1h-0.1v0.1l1,0.6h0.1l-0.1-0.7l0.3-0.3h-0.1
		L221,26.7z M221.2,32.3l0.6,0.1L222,32h-0.6L221.2,32.3z M223,27.4c0,0.3-0.1,0.4-0.3,0.4l-0.6-0.1v0.1l-0.1-0.1h-0.1l-0.6,0.8
		l0.1,0.6h0.1c0-0.4,0.2-0.7,0.7-0.9h0.4v0.1h-0.3l0.4,0.7h0.7l0.1-0.1h0.1l0.6,0.6h0.1c-0.6-0.9-1-1.4-1.3-1.4v-0.7H223z
		 M221.3,36.2l0.3,0.3l0.1-0.1v0.1l0.4-0.1l-0.1-0.4h-0.4L221.3,36.2z M221.8,33.9l0.1,0.6h0.3l0.3-0.3v-0.3l-0.1,0.1l-0.1-0.1
		H221.8z M222,17.8v0.3h0.4v-0.3H222z M222.3,8.5v0.4c0.4-0.2,0.6-0.4,0.7-0.7h-0.1L222.3,8.5z M222.8,37.2h0.1l0.3-0.3v-0.1
		L222.8,37.2z M222.9,26.2l0.1,0.4l0.6-0.6h-0.3L222.9,26.2z M223.3,36.5l0.3,0.3h0.3l0.1-0.6h-0.1L223.3,36.5z M223.6,38.7v0.1
		c0.2,0.5,0.5,0.7,1,0.7h0.7v-0.1l-0.7-0.1l-0.4,0.1l0.1-0.1V39L223.6,38.7z M223.8,25.9l0.1,0.1v0.1l0.7-0.1v-0.3h-0.1L223.8,25.9z
		 M224.2,36.8v0.4h0.3v-0.4H224.2z M224.9,17.5c0,0.2-0.1,0.3-0.4,0.3v0.3h0.1l0.6-0.6H224.9z M224.6,37.4l0.1,0.1l-0.1,0.1v0.1
		l0.3,0.3l0.4-0.1v0.3h0.1c0-0.2,0.2-0.3,0.6-0.3l0.3-0.3v-0.3l-0.4,0.3l-0.8-0.3H224.6z M224.7,34.8v0.6h0.1l0.1-0.6H224.7z
		 M225.6,40l-0.1,0.4h0.1l0.6-0.3V40h-0.3l-0.1-0.1L225.6,40z M225.6,30.4v0.1h0.4v-0.3L225.6,30.4z M226.3,38.9l-0.3,0.4h0.3
		l0.1-0.4H226.3z M226.1,33l0.1,0.1v0.1l-0.1,0.4l0.1,0.1h0.3C226.6,33.3,226.4,33,226.1,33z M227.3,33.7l-0.7,0.7l1.3-0.4v-0.1
		L227.3,33.7z M226.9,31.4v0.3l0.3,0.3l0.3-0.3l-0.4-0.3H226.9z M226.9,35.2v0.6c0,0.5,0.2,0.8,0.7,1h0.3v-0.6L226.9,35.2z
		 M228.6,39.7v0.1l0.1,0.1h0.4v-0.1L228.6,39.7z M229.4,40.5l-0.1,0.1v0.1h0.3l-0.1,0.1V41h0.6v-0.4L229.4,40.5z M230.1,39.7
		l0.3,0.7h0.6v-0.3c-0.2,0-0.3-0.1-0.3-0.4H230.1z M231.1,34.8l0.1,0.1v0.1H231v0.3l0.4-0.3l0.1,0.1v-0.1l-0.3-0.3H231.1z
		 M233.5,41.7c0.6,0,0.8,0.2,0.8,0.7l0.1,0.4h-0.1l-1.1,0.1v-0.1l-0.4-0.6l-0.1,0.1h-0.1v-0.3L233.5,41.7z M234.3,40.3h0.1v1.1
		l-0.1,0.1v0.1l-0.4-0.1C234.1,40.7,234.2,40.3,234.3,40.3z M236.3,1.3c4.3,0,8.5,1.6,12.6,4.9c2.5,2.7,4,4.9,4.4,6.7l-0.3,0.4v0.3
		l0.3,0.3V13c0.3,0,0.5,0.8,0.8,2.4h-0.3V15c-0.2,0-0.3,0.3-0.3,0.8c-0.2,0-0.3,0.2-0.3,0.7l-0.1,0.1h-2l-1-0.8h-0.1l0.1,0.1v0.7
		l-0.7,0.3h-0.7v-0.3h-0.3v0.4l0.4,0.6h-0.1l-0.1-0.1h-0.1v0.7l-1.8-0.6V18c0,0.3,0.6,0.4,1.7,0.4c0,0.2,0.3,0.3,0.8,0.6l0.4-0.1
		l0.1,0.1v-0.1l0.1,0.1h0.1l0.6-0.1l0.6,0.1l0.3-0.4c-0.3,0-0.4-0.2-0.4-0.7l-0.6,0.1l-0.4-0.1v-0.3c0-0.5,0.2-0.9,0.7-1l0.3,0.7
		l-0.1,0.1v0.3h0.1c0-0.3,0.3-0.4,1-0.6l0.1,0.1v0.4c-0.3,0-0.4,0.2-0.4,0.7h0.3v-0.3c0.3,0,0.4-0.2,0.4-0.6l0.1-0.1v-0.1h-0.3v-0.1
		h0.3l0.1,0.1h0.1l1.4-0.7l0.3,0.4l-0.1,0.4c0.3,0,0.4,0.5,0.4,1.6l-0.4,0.7l-0.1-0.1H254c0,0.3-0.2,0.4-0.7,0.4l-0.1,0.1v0.3l1-0.4
		l-0.1,0.1v0.3h0.7l0.3,0.3l-0.1,0.1v0.1l0.3,0.3l-0.1,0.1l0.1,0.7l-0.1,0.8c-0.2,0-0.3-0.2-0.3-0.6h-0.6v0.6l-0.1,0.7l-0.6-0.1
		l-0.4,0.1l0.1,0.4l0.6-0.3V24h0.4l0.1-0.1h0.1V24l-0.1,0.4h0.7c0,3.8-1.6,7.8-4.8,12.2c-4.2,4.3-8.8,6.4-14,6.4v-0.3
		c0.3,0,0.4-0.1,0.4-0.3h-0.6v-2h0.3v-0.9h0.4l0.4,0.3h0.1l0.6-0.3l-0.8-1.1v-0.6c0-1,0.4-1.6,1.1-1.7l-0.1-0.1l0.1-0.1v-0.6
		l-0.7,0.1v-0.4l1.3-0.3v0.1l-0.1,0.1v0.1h0.3c0-0.4,0.8-1,2.3-1.7c1.1-0.9,1.7-1.5,1.7-1.8h1v-0.1l-0.1-0.1v-0.1l-0.1,0.1h-0.3
		v-0.1c0-0.2,0.4-0.5,1.3-1v-0.4l-0.1-0.7l0.1-0.1h0.3l0.1,0.1l0.1-0.1h0.1c0.3,0,0.4,0.1,0.4,0.4h0.1v-0.6h-0.7
		c-0.2,0-0.3-0.1-0.3-0.4l0.1-1h0.1l0.4,0.3h0.1l-0.1-0.1c0.1-0.5,0.2-0.7,0.4-0.7v-0.3c-0.4,0-0.6-0.1-0.6-0.3v-0.8l0.1-0.1v-0.1
		l0.1,0.1h0.3c0-0.2,0.1-0.3,0.4-0.3l0.1-0.7h-0.3v0.3l-0.3,0.3h-0.4v-0.1c0.1-1,0.2-1.6,0.3-1.6h0.3v-0.1l-0.4-0.7v-0.7h0.3v-0.1
		l0.1,0.1h0.1c0.3,0,0.4-0.1,0.4-0.4h0.1v0.3h1.4l0.6-0.1l1.7,0.4c0.4-0.5,0.8-0.7,1.1-0.7l0.3,0.3h0.1v-0.1c-0.3,0-0.4-0.1-0.4-0.3
		h0.1l-0.4-0.6c-0.1,0.3-0.6,0.5-1.6,0.7l-0.3-0.3h-0.3l-0.1,0.1h-0.1l-0.1-0.1v-0.1l0.3-0.8l-0.8,0.3h-0.4l-0.1-0.1l-0.1,0.1h-0.1
		c-0.1-0.2-0.7-0.3-1.7-0.3l-0.4-1.8c0.2,0,0.3-0.2,0.3-0.6l0.7-0.1l-1.6-1.4l0.1-0.1v-0.1l-1.7-2.8c-1.4-1.7-3.2-2.9-5.4-3.6
		c-1.1-0.1-1.7-0.3-1.7-0.6V1.5L236.3,1.3z M236.3,36.4h0.3l-0.1,0.7h-0.1l-0.3-0.3v-0.1L236.3,36.4z M236.1,38.1h0.3v1.1l-0.3,0.3
		V38.1z M238.2,40.9L238,41v0.3l0.4,0.1v-0.3L238.2,40.9z M238.2,37.6v0.1l0.4,0.1v-0.3H238.2z M241.4,39.3v0.1h0.3l0.1-0.4h-0.1
		L241.4,39.3z M244.3,32.7l0.1,0.4h0.1l0.3-0.3v-0.3l-0.3-0.3C244.4,32.3,244.3,32.4,244.3,32.7z M245.1,31.5l0.1,0.4h0.1l0.3-0.3
		v-0.3l-0.3-0.3C245.2,31.1,245.1,31.3,245.1,31.5z M245.7,20.2l1,0.3l-0.1,0.1v0.3l0.1,0.1v0.1l-0.1,0.1c-0.7,0-1-0.3-1-1
		L245.7,20.2z M246,32.1v0.1l0.1,0.1h0.4v-0.1L246,32.1z M246.1,26.6v0.1l0.1,0.4h0.4l-0.3-0.6H246.1z M246.1,29.7l0.3,0.3h0.1
		l-0.3-0.3H246.1z M246.3,5.9v0.1c0.2,0,0.3,0.1,0.3,0.4h0.3V5.9H246.3z M246.8,22.9c0,0.3-0.1,0.4-0.3,0.4l-0.1-0.1h-0.1v0.1
		c0,0.2,0.5,0.4,1.5,0.6c0,0.3,0.1,0.4,0.3,0.4l0.1-0.1V24c-0.3,0-0.4-0.2-0.4-0.6l-0.1,0.1h-0.1c-0.3,0-0.4-0.2-0.4-0.7H246.8z
		 M247,27.7l-0.1,0.6h0.4l0.6-0.3l-0.1-0.1v-0.1l-0.1,0.1h-0.3l-0.1-0.1H247z M247.8,31.4l0.1,0.1l-0.1,0.1h0.4l-0.1-0.6L247.8,31.4
		z M248.8,24.5l-0.1-0.1h-0.1l-0.1,0.1v0.3l0.1-0.1h0.4l0.4,0.3v-0.7h-0.1L248.8,24.5z M248.5,24.9V25l0.1,0.4l-0.1,0.1h0.4v-0.1
		l-0.3-0.6H248.5z M249.1,19.1v0.4h0.1l0.1-0.4H249.1z M249.6,18.1v0.1l-0.3,0.3v-0.1L249.6,18.1z M249.9,25.3l0.1,0.4h0.4v-0.3
		L249.9,25.3z M251.9,13.9c0,0.3-0.2,0.4-0.7,0.4v0.1h0.6l0.8-0.3v-0.3h-0.3l-0.1,0.1H252L251.9,13.9z M251.4,24.2v0.1h0.7l-0.3-0.3
		L251.4,24.2z M251.6,20.2l0.1,0.1v0.1l0.1-0.1h0.6c0.2,0,0.3,0.2,0.3,0.6l0.1,0.1h0.1l0.1-0.1l-0.1-0.8h-0.7L251.6,20.2z
		 M253.5,21.2l-0.1,0.7l0.4,0.1l0.4-0.1l0.1,0.1v0.1l0.4-0.1v-0.6h-0.1c0,0.3-0.1,0.4-0.3,0.4c-0.4,0-0.6-0.2-0.6-0.7H253.5z
		 M253.9,25.3l-0.1,0.4h0.4v-0.4H253.9z"/>
	<path class="st0" d="M264.1,1l0.1,0.1h1.6l0.3,0.3v16.8l-0.1,0.6l0.1,0.4h-0.1l0.1,0.1v4.9l-0.1,0.2l0.1,0.1v18.1l-0.3,0.3H265
		v-0.4h-0.3c0,0.3-0.1,0.4-0.3,0.4h-4.7v-0.4h-0.3v0.4H257l-0.3-0.3V1.4l0.3-0.3h7L264.1,1z M258,39v0.3h0.4V39H258z M258.2,41.2
		v0.4l0.3-0.3v-0.1H258.2z M258.8,41h0.6l-0.3-0.3L258.8,41z M260.7,40v0.1c0.7-0.1,1-0.2,1-0.4v-0.1h-0.6L260.7,40z M261.2,41.3
		l0.1,0.4h0.1v-0.4H261.2z M262.5,23.8c0,0.4-0.3,0.6-0.9,0.8v0.1h0.8l0.3-0.8v-0.1H262.5z M261.9,36.9V37l0.5,0.5h0.1v-0.6H261.9z
		 M262.9,41.3l-0.3,0.3v0.5l0.4-0.6v-0.1H262.9z M262.8,37.5v0.3h0.4l-0.3-0.3H262.8z M263.2,25.3v0.3h0.6L264,25h-0.2L263.2,25.3z
		 M263.4,41l-0.1,0.1v0.1h0.4L263.4,41z M264.4,32.7c0,0.3-0.3,0.4-0.9,0.4v0.3l1.2-0.4v-0.3H264.4z M264.3,18.8l0.3,0.3h0.1v-0.3
		H264.3z M264.9,31.8l-0.1,0.6h0.3l0.1-0.6H264.9z M265.4,17.9c0,0.4-0.2,0.6-0.6,0.6v0.1h0.1c0.4-0.2,0.7-0.4,0.8-0.6v-0.1H265.4z
		 M265,23.8v0.3h0.6v-0.3H265z M265.3,13.7V14h0.5v-0.3H265.3z M268,1.1h8c5.9,0.3,8.9,1.2,8.9,2.5h0.7c2.8,2,4.2,5,4.2,9
		c0,4.4-1.7,7.6-5.1,9.3l-0.3-0.3c0,0.5-0.6,0.8-1.8,1v0.1c1.7,0,3.3,1.5,4.7,4.6l-0.1,0.2h-0.6l-0.1-0.2h-0.2l-0.1,0.6h0.1l0.9-0.1
		c0.4,0,0.7,1.1,0.9,3.3h-0.3l-0.7-0.1l-0.6,0.7c0.3,0,0.5,0.2,0.7,0.6v0.3l-0.1,0.1V33h1v-0.3h0.3l0.9,4.6
		c-0.6,0.2-0.9,0.4-0.9,0.6v0.1h0.7c0.3,0,0.6,0.7,0.9,2.1l-0.5,0.5V41l0.5-0.3h0.1c0.2,0.1,0.6,0.6,1.2,1.6l-0.6,0.6h-2.4l0.3-1.2
		v-0.4c-0.3,0-0.5,0.5-0.6,1.6h-2.5l-0.3-0.3l0.1-0.1h0.3l0.8,0.1v-0.4l-0.2-0.6l0.5-0.6l0.7,0.1l0.6-0.1v-0.8
		c-1.5,0.3-2.2,0.6-2.2,0.9l0.1,0.9l-0.1,0.1h-1.3c0,0.5-0.1,0.7-0.3,0.7h-2.4c-0.3,0-0.9-1.2-1.8-3.6l0.1-0.4
		c-0.3,0-0.8-2.6-1.6-7.9c-0.3-1.2-1.1-2.2-2.4-3c-1.2-0.4-2.7-0.6-4.7-0.6v-0.4h0.3v-0.3h-0.3c0,0.2-0.2,0.3-0.6,0.3v0.4l-2.5,0.2
		H268l-0.3-0.3v-2.8c0-0.2,0.2-0.3,0.7-0.3V24h-0.1l-0.4,0.1l-0.1-0.1v-3.7L268,20h3.7c5.8,0,8.8-1.7,8.8-5.2v-1.2
		c-0.3-2.9-1.7-4.3-4.2-4.3c0-0.2-1.2-0.3-3.7-0.3H268l-0.3-0.3V1.4L268,1.1z M269.8,24.1v0.1l0.9,0.5h1.3v-0.3h-1.3
		c-0.2,0-0.3-0.2-0.3-0.5L269.8,24.1z M270,20.6v0.3l0.3,0.3l-0.1,0.1v0.4h0.6l-0.1-0.1v-0.1l0.4-0.6l-0.9-0.3H270z M271.5,20.3
		l-0.1,0.6h0.4v-0.6H271.5z M272.1,24.7l0.3,0.3h0.9v-0.1l-0.3-0.3L272.1,24.7z M273.8,23.4l0.1,0.4h0.3l0.3-0.3v-0.1l-0.7-0.1V23.4
		z M277.2,20l0.3,0.4l-0.1,0.1h-0.1l-0.1-0.1c-0.5,0-1.2,0.3-2,0.8h-0.4l0.1,0.1v0.1l-0.3,0.9h0.4c0.6-0.2,0.9-0.6,0.9-1.2l0.4-0.3
		h0.6c0.3,0,0.4,0.2,0.4,0.6h0.3l0.4-0.8c-0.2,0-0.3-0.2-0.3-0.6l-0.1-0.1H277.2z M278.2,26.2l0.5,2.2h0.3V28l-0.3-1.2l0.3-0.4v-0.1
		H278.2z M279.5,22.6l-0.3,0.6l1.5,0.6v-0.3c-0.2,0-0.3-0.2-0.3-0.6l-0.6-0.3H279.5z M279.5,18.5l0.6,0.6h0.6l0.3-0.3h-1.2v-0.3
		H279.5z M280,35.1c0.1,0.6,0.3,0.9,0.5,0.9l0.3-0.3v-0.2l-0.4-0.4H280z M280.3,29.5l-0.1,0.6v0.1h0.1l0.1-0.6v-0.1H280.3z
		 M280.9,25l-0.1,0.1v0.3l0.6-0.3V25H280.9z M280.7,32.1l0.6,0.9h0.3v-0.3c-0.3,0-0.4-0.2-0.4-0.6H280.7z M280.9,38.1
		c0.6,0.2,1,0.5,1.2,0.9l1.3,0.4V39c-0.7,0-1.2-0.3-1.6-1l-0.2-0.1h-0.4L280.9,38.1z M281.2,36l0.3,0.3h0.3V36H281.2z M281.2,39.8
		l0.3,0.3h0.1l-0.3-0.3H281.2z M281.3,20.3v1.2h0.3v-1.2H281.3z M281.6,34.4v0.1h0.3v-0.4L281.6,34.4z M282.4,16.7l-0.1,0.4l0.1,0.4
		h0.1l0.1-0.9H282.4z M282.8,29.6v0.1h0.1l0.5-0.4V29L282.8,29.6z M282.8,41.9v0.3h0.1l0.8-0.1v-0.5h-0.3L282.8,41.9z M283.2,30.9
		h0.2l0.3-0.3h-0.1L283.2,30.9z M284,33.7l-0.4-0.3l-0.3,0.3v0.1h1l0.1,0.2c0.6-0.2,0.9-0.4,0.9-0.6l-0.1-0.1H285
		C284.7,33.6,284.3,33.7,284,33.7z M283.2,35.4l0.2,0.6h0.1l0.6-0.3v-0.3H283.2z M283.7,32.9V33l0.3,0.3h0.3l0.3-0.3L283.7,32.9z
		 M284.7,39.2c0,0.4-0.1,0.6-0.3,0.6l0.1,0.1v0.1l-0.3,0.5v0.1h0.6v-1.5H284.7z M284.6,10.2h0.1l0.3-0.3h-0.1L284.6,10.2z
		 M284.9,30.9v0.3l0.7-0.1v-0.1H284.9z M285.2,36.9c0,0.2,0.3,0.5,1,0.9h0.3v-0.1c0-0.2-0.3-0.4-1-0.8H285.2z M285.3,32.4h0.3
		l0.6-0.3v-0.3h-0.1C285.6,32,285.4,32.2,285.3,32.4z M286.1,28.7l-0.3,0.5l0.6,0.4l0.2-0.1h0.1l0.9,0.6v-1.2h-0.4l-0.8,0.1
		L286.1,28.7z M285.8,35.4v0.3h0.6v-0.3H285.8z M285.9,27.1v0.1l0.4,0.1v-0.3H285.9z M286.3,29.9v0.9c0.2,0,0.3-0.2,0.3-0.5
		l-0.1-0.4H286.3z M287,38.3l0.3,0.3l0.3-0.3H287z M288.6,39.2v0.3h0.6v-0.3H288.6z M291.4,43.8h0.7l0.3,0.3l-0.3,0.3h-0.7l-0.3-0.3
		L291.4,43.8z"/>
	<path class="st0" d="M291.9,1h3.9l0.1,0.1l0.1-0.1h3.7v0.1l-0.3,0.4v0.1h0.1l0.4-0.3h0.3c0.2,0,0.3,0.3,0.3,0.8l0.4,0.1v19.9H301
		l-0.1-0.2h-0.1l-0.1,0.2v0.1l0.6,0.6v1.3h-0.3l0.1-0.1v-0.1h-0.4c0,0.7-0.3,1.3-0.8,1.8h-0.7v0.8c0.3,0,0.4,0.2,0.4,0.7h0.3
		c0.2,0,0.4-0.4,0.6-1.2l0.7-0.1v16.7l-0.3,0.3h-0.3l-0.6-0.4h-0.1c0,0.3-0.1,0.4-0.3,0.4h-0.6c-0.2,0-0.3-0.1-0.3-0.4h-0.9
		c0,0.3-0.6,0.4-1.8,0.4h-0.7l-0.6-0.1L294,43h-2l-0.4-0.4v-0.3c0.6-1.7,1.1-2.5,1.5-2.5v-0.2l-0.3-0.3v0.5l-0.8-0.2V40l-0.1,0.7
		h-0.3V25.9c0-0.2,0.4-0.3,1.3-0.3l0.3-0.4l-0.3-0.5v-0.9l0.3-0.5v-0.4h-0.1c0,0.3-0.2,0.4-0.7,0.6l0.1,0.2l-0.3,1.5h-0.3l-0.3-0.3
		v-8.2h0.8v-0.3l-0.3-0.3l-0.4,0.1V5.1l0.3-0.3h0.3l0.5,0.3V4.9l-0.3-0.5V4.2l0.1-0.1V3.9h-0.9V1.3L291.9,1z M292.1,7.5l0.1,0.7
		l0.3-0.3V7.5H292.1z M292.7,3.7l1.3,0.1l0.1-0.1V3.3h-1L292.7,3.7z M294.2,9.5v0.9l0.1-0.1h0.1l0.1,0.1v0.7l-0.3,0.3H294
		c0-0.3-0.3-0.5-0.8-0.5h-0.6v0.3c0.8,0,1.5,0.6,2.1,1.8h0.8V13c-0.5,0-0.8-0.3-1-0.8c0-0.6,0.3-0.9,1-0.9l-0.3-0.9
		c-0.4,0-0.6-0.3-0.6-1L294.2,9.5z M293,6.8l0.1,0.1v0.1L293,7.3v0.2l0.8,0.3h0.1V7.6l-0.3-0.8H293z M293,38.7v0.1h0.6v-0.4h-0.3
		L293,38.7z M293.4,26.6v0.1h0.1l0.3-0.3v-0.1h-0.1L293.4,26.6z M293.6,2.1h0.3l0.3-0.3V1.5H294L293.6,2.1z M293.6,42l0.2,0.5
		c0.4-0.2,0.7-0.4,0.7-0.6v-0.1h-0.6L293.6,42z M294.3,31.7l-0.4,1l0.4,0.3l1.2-0.3v-0.1c-0.7-0.3-1-0.5-1-0.9H294.3z M294.2,27.7
		v0.1c0.2,0.2,0.3,0.6,0.3,1l0.1-0.1h0.1l0.6,0.5v-0.5l-0.8-1H294.2z M294.2,29.2v0.4h0.3v-0.1L294.2,29.2z M294.3,31.4h0.1
		c0.4-0.1,0.6-0.3,0.6-0.4h-0.3L294.3,31.4z M294.5,14v0.2l0.4,0.7h0.8l-1-0.9H294.5z M294.8,8.3l0.1,0.1l-0.1,0.1v0.5l0.8-0.1h0.4
		V8.8l-0.4-0.5h-0.1l-0.1,0.1l-0.1-0.1H294.8z M295.2,40.5c0.7,0.3,1,0.6,1,0.9h0.2c0.5-0.4,0.9-0.6,1.2-0.6l-0.3-0.3H296l-0.4-0.3
		L295.2,40.5z M295.5,30v0.3h0.9V30H295.5z M296.1,11v0.1l0.1,0.1l-0.1,0.2v0.3l0.5-0.1v-0.3l-0.3-0.3H296.1z M296.6,23.5v1.3
		l0.3,0.5c0.6-0.1,0.9-0.3,0.9-0.5v-0.1l-0.8,0.1l-0.3-0.4v-0.1l0.1-0.8H296.6z M296.6,35.5V36l0.3,0.3h0.1l0.3-0.3
		c-0.4,0-0.6-0.2-0.6-0.5H296.6z M297,32.1l-0.1,0.1v0.1h0.4L297,32.1z M297.3,22.5l-0.1,0.1v0.4l0.1-0.1l0.8,0.1l0.4-0.4
		L297.3,22.5z M299.2,37.6c0,0.6-0.2,0.9-0.5,0.9l-0.9-0.1c0,0.3-0.1,0.4-0.3,0.4V39l0.8,0.3c0.5-0.2,0.8-0.4,0.8-0.6h0.1l0.1,0.1
		h0.1c0-0.4,0.1-0.6,0.3-0.6C299.7,37.9,299.6,37.7,299.2,37.6z M298,30.7l-0.3,0.7v0.3c0.4-0.2,0.6-0.5,0.6-0.9l-0.1-0.1H298z
		 M299.1,33h-1.2c0,0.2,0.5,0.4,1.5,0.6h0.1l0.3-0.3v-0.5L299.1,33z M298,25.6v0.3l0.6,0.6h0.1v-0.1h-0.3v-0.2l0.4-0.6H298z
		 M298.9,22.3l0.2,0.1v0.4c0,0.2-0.2,0.3-0.5,0.3l-0.1,0.1v0.1h0.8v-1.2H298.9z M298.5,29.9v0.5l0.3,0.3h0.1v-0.5l-0.3-0.3H298.5z
		 M299.2,40.8v0.9h0.1l0.3-0.6l-0.1-0.6L299.2,40.8z M299.8,36.6v0.5l0.4,0.1l0.2-0.1v-0.2l-0.5-0.3H299.8z M299.8,41.1v0.1l0.3-0.3
		v-0.1L299.8,41.1z M300.6,14.9v0.3h0.4l-0.3-0.3H300.6z M302.9,1h6.4c5.6,0,9.7,1.5,12.2,4.6l0.1-0.1v0.1l-0.1,0.1
		c1.8,2.7,2.7,5.6,2.7,8.5v15.1c0,3.4-0.9,6.2-2.7,8.3h-0.3v0.1l0.1,0.5l-1,0.9h-0.1v-0.3h-0.3l-0.1,0.4l0.1,0.5
		c-2.1,2.2-6.6,3.3-13.5,3.3h-3.4l-0.3-0.3V39l0.3-0.4l-0.3-0.3v-2.8l0.3-0.3h5.7c0.5,0,1,0.2,1.3,0.5h0.4v-0.1l-0.1-0.5
		c3-1,4.5-3,4.5-5.9V13.8c-0.7-3.3-2.4-4.9-5.4-4.9c0-0.2-0.3-0.3-0.9-0.3L307,8.8l-0.1-0.2V8.5l-1,0.5L305,8.8V8.6l0.1-0.1V8.3
		h-0.3l-0.6,0.5h-1.3l-0.3-0.3V1.3L302.9,1z M302.9,36.8v0.1h0.9c0,0.6,0.4,1,1.3,1.3l0.1-0.1V38c-0.6,0-0.9-0.3-0.9-1l0.3-0.3
		l-0.5-0.4l-0.4,0.1v-0.1C303.2,36.4,302.9,36.6,302.9,36.8z M305.6,36.5l1.2,0.5l0.1-0.1v-0.2c-0.1,0-0.3-0.2-0.4-0.6l-0.1-0.1
		h-0.3C305.9,35.9,305.8,36.1,305.6,36.5z M306.4,8.9v0.4h-0.3V9.2L306.4,8.9z M306.2,7.7l0.3,0.3l0.1-0.1V7.7H306.2z M306.5,38.6
		V39h0.3v-0.4H306.5z M307,39.6v0.4l0.3-0.3v-0.1H307z M307.3,39.2v0.1h0.7v-0.1H307.3z M309.1,0h0.8l-1,0.8V0.6L309.1,0z
		 M309.1,36.8v0.3l0.3,0.6l0.6-0.1l-0.3-0.7H309.1z M315.5,10.4l0.1,0.9h0.3l-0.1-0.1V11l0.3-0.6H315.5z M318.4,11.6l0.3,0.3
		l0.1-0.1v-0.1H318.4z M319.8,29.3v0.3h0.9V30h0.1v-0.3l-0.5-0.3H319.8z M321.1,3.4h0.3c0,0.2,0.1,0.3,0.4,0.3v0.4h-0.3
		c-0.2,0-0.3-0.1-0.3-0.4h-0.1V4h-0.4L321.1,3.4z"/>
	<path class="st0" d="M335,28.9l0.1,0.1v0.1l-0.3,0.4v0.1c0.4,0,0.6,0.5,0.6,1.4c0.4,1,0.9,1.7,1.4,2.3v0.1l-0.1-0.1h-0.1v0.3h0.1
		l0.1-0.1c1.8,1,3.1,1.6,4,1.7v0.4h0.3v-0.3h0.8c0.6,0.1,0.8,0.2,0.8,0.4v1.1c0,0.2-0.1,0.3-0.4,0.3l-0.1-0.1H342v0.1
		c0.4,0.1,0.6,0.3,0.6,0.7l-0.4,0.7c0.3,0,0.4,0.1,0.4,0.3v0.3l-0.1,0.7l-0.1-0.1h-0.1l-0.1,0.1v0.6c0.4,0,0.7,0.2,0.8,0.6v0.8
		c0,0.2-0.2,0.3-0.6,0.3l0.4,0.6l-0.3,0.3h-0.7c0-0.2-0.3-0.6-1-1.1v-0.3h-0.8v0.1h0.4v0.7h-1.1c-0.5-0.8-0.8-1.1-1-1.1l-0.1,0.1
		v0.1c0.3,0,0.4,0.3,0.4,0.8h-0.1l-0.6,0.1c-1.9-0.2-3.7-0.9-5.5-2c0.2-0.7,0.4-1,0.7-1v-0.4c-0.5,0.1-0.9,0.3-1.3,0.7h-0.6
		c-2.1-1.5-3.6-3.7-4.4-6.5l-0.3-1.7l0.3-0.3v-0.1l-0.1,0.1h-0.1c-0.2-0.4-0.3-1-0.3-1.8l0.3-0.3h0.1l0.1,0.1l0.1-0.1h0.4l0.8,0.1
		l0.8-0.3h2v0.4h0.1c0-0.4,0.2-0.6,0.4-0.6h2.5L335,28.9z M326.7,30.2v1h0.1c0-0.2,0.1-0.3,0.4-0.3v-0.1l-0.3-0.6H326.7z M342.6,1.3
		l0.1,0.1v6.9c0,0.2-1.1,0.4-3.4,0.6c0.1-0.3,0.4-0.6,1-0.7l0.6,0.1h0.3V8h-1.5v0.3h-1l0.1,0.7c-1.4,1-2.1,1.8-2.1,2.4l-0.1,0.7V13
		c0,1.9,2.4,3.3,7.2,4.1l0.1,0.1l-0.1,0.1v0.3l0.6-0.4c4.9,1,8.3,2.1,10.4,3.3l2.6,2.1v0.1h-0.4v-0.3c-0.4,0-0.6-0.2-0.6-0.6h-0.6
		l1,0.8l0.1,0.8h-0.3v0.3h0.1l0.4-0.1l-0.4,1h1.3c0,0.3,0.1,0.4,0.4,0.4c0,0.3,0.2,0.6,0.6,1.1c0.5,0.2,0.7,0.6,0.7,1.3l-0.4,0.3
		h-1.4c0,0.2-0.2,0.4-0.7,0.6h-1v0.3c0.4,0,0.8,0.1,1,0.3c0-0.2,0.2-0.3,0.6-0.3l0.4-0.4c0.1,0.5,0.3,0.7,0.4,0.7l0.1-0.1l0.1,0.1
		c0-0.7,0.3-1,0.8-1l0.1,0.1v1l-0.1,0.1c0,0.2-0.3,0.3-0.8,0.3c0,0.5-0.1,0.7-0.3,0.7c-0.4,0-0.6,0.2-0.6,0.7h-1.1V31l0.1,0.7h0.1
		v-0.3l-0.1-0.1l1.1-0.4h0.7v0.3h0.3l0.6-0.3V30h0.3c-0.1,1.7-0.3,3.1-0.6,4.1l-0.1-0.1H359v0.1h0.3c-0.1,1.1-0.4,1.7-0.8,1.7
		l-0.4-0.1V36l0.6,0.1c-0.2,0.6-0.6,1.1-1.1,1.7l-0.1-0.1h-0.1c0,0.6-0.3,1.1-0.8,1.4l-0.1-0.1H356l0.3-1l-1.6-1.3h0.3v-0.1
		l-0.3-0.3l-0.7,0.1v-1.3c0-0.2,0.2-0.4,0.6-0.4v-0.1c0-0.2-0.4-0.3-1.1-0.4l0.3,0.4v1h-0.1l-0.4-0.1l0.3,0.4v0.3l-0.6,0.6l-0.1-0.1
		l-0.1,0.1h-0.3l-0.1-0.1h-0.1c0-0.7,0.3-1,0.8-1v-0.1l-0.8-0.6h-0.8l0.1,0.1v0.1l-0.3,0.3c-0.7,0-1-0.1-1.1-0.4l0.1-0.1l-0.3-0.3
		c0-0.4,0.4-0.6,1.1-0.6l0.1-0.1v-0.1c-0.4,0-0.7-0.2-0.8-0.7c0.4-0.7,0.6-1.5,0.6-2.5l0.7,0.1c0.2-0.5,0.4-0.7,0.6-0.7v-0.1
		l-0.3-0.3h-0.4l-0.4,0.3h-0.1l-1-1.3v-0.1h0.1l1,0.1c0-0.3,0.2-0.4,0.6-0.4v-0.1l0.1,0.1h0.6l0.3-0.3v-0.3c-0.5,0-0.9-0.2-1.1-0.6
		H351l-0.4,0.3h-2.1l-0.4-0.3l-0.6,0.1c-0.7-0.2-1-0.4-1-0.6v-0.1c0.2,0,0.5-0.2,0.8-0.6c-0.5-0.4-1.1-0.7-1.8-0.7v0.1l-0.8-0.3
		l-0.1,0.1l-1.4-1.7c-0.2,0.6-0.6,0.8-1.1,0.8c0,0.3-0.3,0.5-1,0.7v0.3h-0.6c-8.6-1.5-13-5.4-13-11.7V13c0-6.5,4.2-10.4,12.7-11.6
		L342.6,1.3z M328.1,32.5h0.4v-0.3h-0.1L328.1,32.5z M328.4,31.2h0.7v-0.3h-0.4L328.4,31.2z M328.7,34.5v0.1h0.3v-0.4L328.7,34.5z
		 M329.7,30.3l-0.1,0.1v0.3h0.4v-0.1L329.7,30.3z M329.8,6.6l0.3,0.3h0.1V6.6H329.8z M330.4,18.3l0.4,0.4l0.1-0.4l-0.1-0.1
		L330.4,18.3z M330.4,31.4V32h0.3v-0.6H330.4z M331.1,34.8l0.1,0.8h0.3v-0.1l-0.1-0.7H331.1z M331.4,20.7l0.3,0.3h0.3v-0.3H331.4z
		 M331.6,31.4l0.3,0.3h0.4l-0.1-0.6L331.6,31.4z M331.8,29.8l0.3,0.3l0.3-0.3v-0.3h-0.3L331.8,29.8z M332.1,38.1v0.1h0.6l-0.1-0.1
		v-0.1L332.1,38.1z M332.3,18.5V19l0.3,0.3v-0.8H332.3z M333.2,33.7V34l0.3,0.6h0.3v-0.3l-0.3-0.6H333.2z M333.5,6.9v0.3
		c0.5,0,0.7,0.1,0.7,0.3h0.3L334,6.9H333.5z M333.6,30.6v0.3c0.4,0,0.6,0.2,0.6,0.6h0.4v-0.3l-0.3-0.3h-0.1l0.1-0.1v-0.4h-0.4
		L333.6,30.6z M333.9,19.9l-0.1,0.1v0.1h0.7V20L333.9,19.9z M333.9,4.4l0.3,0.3h0.1l0.3-0.3V4.1L333.9,4.4z M334,15.5v0.1l1.7,0.3
		l-1-0.6L334,15.5z M334.2,40.6v0.1c0.7,0,1,0.3,1,0.9h0.3v-0.3l0.1-0.1l-0.1-0.1l-1.1-0.4H334.2z M335,34.8c0,0.3-0.1,0.4-0.4,0.4
		v0.3l0.7-0.7H335z M335.2,37.9h0.1l0.1-0.1h0.1l0.4,0.4h0.1v-0.1l-0.1-0.4h-0.6L335.2,37.9z M335.3,39l0.3,0.3h0.1l-0.3-0.3H335.3z
		 M336.2,36c0,0.2,0.2,0.3,0.6,0.3l-0.1,0.1v0.1l0.6,0.3v-0.1l-0.4-0.7H336.2z M336.4,39.9l-0.1,0.1v0.4l0.1-0.1h0.1l0.6,0.1
		L336.4,39.9z M336.9,16.5v0.3h0.4v-0.3H336.9z M337.8,19.9l-0.1,0.1v0.1h0.6V20L337.8,19.9z M338,38.2v0.4l0.6,0.4h0.3v-0.6h-0.1
		l-0.1,0.1c-0.3,0-0.4-0.1-0.4-0.4H338z M339,42.4v0.1l-0.1,0.1v0.1l-0.4-0.1v-0.1L339,42.4z M339.1,40.7v0.6h0.3V41L339.1,40.7z
		 M339.5,38.1v0.1l0.3,0.3h0.1l0.4-0.1v-0.1l-0.7-0.1H339.5z M339.5,42.7h0.6V43H340l-0.4-0.1V42.7z M341.1,23l-1.1-0.3l0.6,0.8h0.6
		c0-0.2,0.2-0.4,0.6-0.4v-0.3l0.4-0.3l-0.1-0.4L341.1,23z M342.2,24.9h1l0.4,0.4v0.7c-1.8-0.3-2.7-0.6-2.7-0.8h1.3V24.9z
		 M341.1,40.5V41l0.3,0.3l0.1-0.1h0.3v0.3h0.1v-0.3L341.1,40.5z M341.4,36.7v0.4h0.4v-0.1l-0.3-0.3H341.4z M341.8,21.3V22h0.1v-0.7
		H341.8z M343.3,17.9V18l0.1,0.7c-0.2,0-0.4,0.3-0.6,0.8h-0.7l0.1,0.6l-0.1,0.4c1-0.7,1.4-1.4,1.4-2.1v-0.6H343.3z M342.9,24.1h0.4
		l0.4,0.4v0.4h-0.1l-0.7-0.3V24.1z M344.3,1.3c4.1,0,7.7,1.2,10.9,3.5c1.5,1.6,2.3,2.6,2.3,3.1c0.5,0,1.1,1.8,1.8,5.5v0.4l-4.8,0.6
		v-0.1l-4,0.4c-0.4-2.3-1-3.8-2-4.5c-0.8-0.7-2.2-1.2-4.4-1.5V8.3l0.1-0.8l-0.1-1.4V1.5l0.1-0.1V1.3z M348,34.7
		c0.6,0,1.1,0.2,1.7,0.7c0.9,0,1.4,0.3,1.4,1l0.4,0.1l0.1-0.1l0.3,0.4l-0.1,0.1v0.1c0.6,0.4,0.8,0.8,0.8,1.1h0.3
		c0-0.4,0.4-0.6,1.1-0.7l0.1,0.1l-0.1,0.1v0.3l0.1,0.1c0,0.5-0.2,0.7-0.4,0.7v0.6c0,0.5-0.2,0.7-0.7,0.7c0,0.2,0.2,0.4,0.7,0.4v-0.1
		l0.1-0.1h0.1v-1h0.3v-0.1l-0.1-0.1c0.1-0.5,0.4-0.7,1-0.7c0.2,0.7,0.3,1,0.6,1v0.1c-1.9,1.5-3.4,2.2-4.5,2.2v-0.3l-1.5,0.3v-0.1
		l0.1-0.4h-0.1l-0.4,0.1v0.1l0.3,0.4v0.3c0,0.4-1.7,0.7-5.2,0.8l-0.1-0.1v-1.7l0.1-0.1v-0.1L345,41h0.3c0.2,0,0.3-0.2,0.3-0.7
		l0.4-0.4v-0.3h-0.1l-0.1,0.1h-0.1c0-0.5-0.2-1-0.6-1.7l0.1-0.4l-1-0.8V36c0-0.2,0.2-0.4,0.7-0.4l0.7,0.1c0-0.4,0.5-0.6,1.4-0.6V36
		h-1.4l0.4,0.8h0.1v-0.3h1.1l-0.1-0.1v-0.1h0.3l0.4,0.3l0.1-0.1l0.1,0.8h0.3v-0.4l-0.1-0.7l0.1-0.1c-0.3,0-0.5-0.2-0.6-0.7h-0.4
		v-0.1L348,34.7z M344.2,37.5h0.3l0.1,0.4l-0.1,0.4h-0.3V37.5z M344.6,38.6l0.7,0.1v1.1h-0.8l-0.3-0.3v-0.7
		C344.2,38.7,344.3,38.6,344.6,38.6z M345,42.4v0.1l1,0.1l-0.1-0.4L345,42.4z M345.9,41.5v0.7l0.7-0.3
		C346.6,41.7,346.3,41.5,345.9,41.5z M346,20.8h0.6v-0.3h-0.3L346,20.8z M346.5,23.3l-0.1,0.1v0.1h0.4L346.5,23.3z M347.6,21.8
		l-0.3,0.3v0.3h0.4v-0.6H347.6z M347.5,39.3c0.1,0.4,0.3,0.6,0.4,0.6h0.3v-0.1l-0.4-0.4H347.5z M347.9,2.4v0.1l0.4,0.1V2.4H347.9z
		 M349.1,35.8l0.1,0.4l0.3-0.3v-0.4h-0.1L349.1,35.8z M349.7,37.1v0.3h0.7l-0.3-0.3H349.7z M350,25.5l-0.1,0.4h0.3l0.3-0.3l-0.1-0.1
		H350z M350.4,38.9v0.7l1-0.1v-0.1c-0.5,0-0.7-0.1-0.7-0.4H350.4z M353.8,21l0.3,0.7l-0.6,0.3l-0.1-0.1h-0.4l-0.3,0.3v0.1l0.3,0.4
		v0.6l-0.3,0.6H352l-0.4-0.3v0.6h-1v0.1l0.7,0.3l0.4-0.4h0.1l0.4,0.3c0.1-0.4,0.4-0.6,0.8-0.6v0.7h-0.4v0.4l0.6,0.6l0.3-0.3v-1
		l0.3-0.3h0.1l0.4,0.1v-1h-1V23l0.1-0.7h0.1l0.7,0.1c0-0.4,0.1-0.6,0.3-0.6C354.6,21.5,354.3,21.2,353.8,21z M350.8,3.4l0.6-0.4
		h-0.1L350.8,3.4z M350.8,32v0.1c0,0.3,0.3,0.4,1,0.4c0,0.4,0.1,0.6,0.3,0.6h0.3l0.3-0.3l-1.6-0.8H350.8z M351.4,41h0.8v-0.3
		l-0.3-0.3h-0.1L351.4,41z M352,38.8c0,0.3-0.1,0.4-0.4,0.4v0.1h0.6l0.1-0.6H352z M352,31.2l0.3,0.3h0.1l-0.3-0.3H352z M355.1,28.6
		v0.3h-0.7c-0.2,0.2-0.7,0.3-1.7,0.4l-0.1-0.1v0.3h1.3c0,0.6,0.1,0.8,0.3,0.8h0.3l-0.3-0.4v-0.1l0.3-0.3h1l0.4,0.3v-0.6l-0.1-0.1
		v-0.1l0.3-0.3H355.1z M352.7,8v0.3h0.6V8H352.7z M353.7,25.6c0,0.5-0.2,0.7-0.7,0.7v0.4h0.1l1.3-1L353.7,25.6z M352.9,33.4v0.3
		l0.6,0.3h0.1v-0.3L352.9,33.4z M354.5,6.6v0.3h-0.8v0.3h0.7l0.7-0.1l0.3,0.4l0.4-0.1V6.9l-0.3-0.3H354.5z M353.8,32.5v0.1
		c0,0.2,0.3,0.4,0.8,0.7v-0.6c-0.5,0-0.7-0.1-0.7-0.3H353.8z M354.2,31.4v0.3h0.7v-0.8c-0.2,0-0.3,0.2-0.3,0.6H354.2z M354.6,22.8
		l-0.1,0.4h0.4v-0.4H354.6z M354.5,37.2h0.6v0.6l-0.4,0.1l-0.1-0.1V37.2z M354.8,24.4v0.3l0.6,0.1v-0.3L354.8,24.4z M354.8,26.9v0.3
		h0.7l-0.3-0.3H354.8z M354.9,32v0.6h0.3V32H354.9z M354.9,36v0.1h0.3v0.1l0.7-0.6c0.5,0,0.7-0.2,0.7-0.7h0.1c0-0.3-0.2-0.4-0.6-0.4
		v-0.3H356c-0.2,0-0.3,0.5-0.3,1.4L354.9,36z M355.3,34v0.1l0.4,0.1V34H355.3z M355.5,23.8v0.3l0.8-0.1v-0.1H355.5z M355.6,24.9
		l0.3,0.3h0.1l-0.3-0.3H355.6z M356,30l0.3,0.6l0.4-0.6H356z M356.2,32.3v0.3l0.3,0.3h0.1v-0.6H356.2z M356.2,37.1v0.3h0.4v-0.3
		H356.2z M356.3,26.1v0.3l0.6,0.1h0.4v-0.1C356.9,26.3,356.5,26.3,356.3,26.1z M356.6,33v0.6h0.1l0.3-0.3L356.6,33z M357.5,23h0.1
		c0.4,0.2,0.6,0.5,0.6,0.8h-0.7l-0.3-0.3v-0.3L357.5,23z M357.3,29.5v0.3h0.1l0.3-0.3H357.3z M357.9,10v0.7l0.4,0.3v-0.1L358,10
		H357.9z"/>
</g>
</svg>
